<svg width="573" height="336" viewBox="0 0 573 336" fill="none" xmlns="http://www.w3.org/2000/svg">
<path d="M0.666667 321.889C0.666667 329.253 6.6362 335.223 14 335.223C21.3638 335.223 27.3333 329.253 27.3333 321.889C27.3333 314.525 21.3638 308.556 14 308.556C6.6362 308.556 0.666667 314.525 0.666667 321.889ZM290 119.889L291.193 117.693L289.776 116.922L288.49 117.897L290 119.889ZM425.5 193.5L424.306 195.697L426.027 196.631L427.346 195.185L425.5 193.5ZM532.166 62C532.166 69.3638 538.136 75.3333 545.5 75.3333C552.863 75.3333 558.833 69.3638 558.833 62C558.833 54.6362 552.863 48.6667 545.5 48.6667C538.136 48.6667 532.166 54.6362 532.166 62ZM15.4741 323.908C16.8219 322.924 18.1725 321.939 19.5256 320.951L16.5778 316.912C15.2245 317.9 13.8738 318.886 12.5259 319.87L15.4741 323.908ZM27.6557 315.018C30.3585 313.046 33.0698 311.069 35.7882 309.086L32.8421 305.046C30.1234 307.029 27.4119 309.007 24.7088 310.979L27.6557 315.018ZM43.9132 303.162C46.6176 301.191 49.3276 299.215 52.0416 297.238L49.0968 293.197C46.3826 295.175 43.6725 297.15 40.9678 299.122L43.9132 303.162ZM60.1732 291.312C62.8821 289.339 65.5935 287.364 68.3061 285.388L65.3622 281.346C62.6495 283.322 59.938 285.298 57.229 287.271L60.1732 291.312ZM76.438 279.465C79.1497 277.49 81.8611 275.516 84.5707 273.543L81.6275 269.501C78.9178 271.474 76.2063 273.448 73.4945 275.423L76.438 279.465ZM92.7053 267.62C95.4204 265.643 98.1323 263.668 100.84 261.697L97.8967 257.655C95.1894 259.626 92.4774 261.601 89.7623 263.578L92.7053 267.62ZM108.972 255.777C111.688 253.799 114.398 251.827 117.1 249.859L114.157 245.817C111.455 247.784 108.745 249.757 106.029 251.735L108.972 255.777ZM125.238 243.934C127.96 241.952 130.673 239.976 133.375 238.009L130.432 233.967C127.73 235.934 125.017 237.91 122.295 239.892L125.238 243.934ZM141.51 232.084C144.233 230.101 146.944 228.126 149.64 226.162L146.696 222.121C144 224.085 141.29 226.059 138.566 228.043L141.51 232.084ZM157.766 220.242C160.491 218.256 163.2 216.282 165.89 214.321L162.945 210.28C160.255 212.241 157.546 214.215 154.821 216.201L157.766 220.242ZM174.028 208.387C176.762 206.393 179.474 204.415 182.163 202.453L179.216 198.414C176.528 200.376 173.816 202.354 171.082 204.347L174.028 208.387ZM190.294 196.519C193.032 194.521 195.741 192.542 198.422 190.584L195.472 186.546C192.792 188.504 190.083 190.483 187.346 192.481L190.294 196.519ZM206.546 184.646C209.288 182.641 211.996 180.66 214.667 178.706L211.714 174.671C209.044 176.625 206.337 178.605 203.595 180.61L206.546 184.646ZM222.786 172.761C225.537 170.746 228.243 168.762 230.902 166.811L227.945 162.78C225.287 164.729 222.581 166.713 219.831 168.728L222.786 172.761ZM239.016 160.854C241.779 158.824 244.484 156.835 247.125 154.89L244.161 150.864C241.521 152.807 238.818 154.795 236.055 156.825L239.016 160.854ZM255.224 148.921C258 146.873 260.694 144.882 263.301 142.952L260.326 138.933C257.721 140.862 255.029 142.851 252.255 144.898L255.224 148.921ZM271.387 136.956C274.215 134.854 276.917 132.841 279.484 130.923L276.491 126.918C273.928 128.833 271.23 130.843 268.405 132.942L271.387 136.956ZM287.515 124.899C288.901 123.855 290.233 122.849 291.51 121.882L288.49 117.897C287.218 118.861 285.889 119.864 284.507 120.906L287.515 124.899ZM288.807 122.086L293.041 124.386L295.428 119.993L291.193 117.693L288.807 122.086ZM301.51 128.987L309.978 133.588L312.365 129.194L303.896 124.594L301.51 128.987ZM318.447 138.188L326.916 142.789L329.303 138.396L320.834 133.795L318.447 138.188ZM335.385 147.39L343.853 151.99L346.24 147.597L337.771 142.996L335.385 147.39ZM352.322 156.591L360.791 161.192L363.178 156.798L354.709 152.198L352.322 156.591ZM369.259 165.792L377.728 170.393L380.115 166L371.646 161.399L369.259 165.792ZM386.197 174.994L394.666 179.594L397.052 175.201L388.584 170.6L386.197 174.994ZM403.134 184.195L411.603 188.796L413.99 184.402L405.521 179.802L403.134 184.195ZM420.072 193.396L424.306 195.697L426.693 191.303L422.459 189.003L420.072 193.396ZM427.346 195.185L430.68 191.532L426.986 188.162L423.653 191.815L427.346 195.185ZM437.346 184.227L444.013 176.921L440.32 173.551L433.653 180.856L437.346 184.227ZM450.68 169.616L457.346 162.31L453.653 158.94L446.986 166.245L450.68 169.616ZM464.013 155.005L470.68 147.699L466.986 144.329L460.32 151.634L464.013 155.005ZM477.346 140.394L484.013 133.088L480.32 129.718L473.653 137.023L477.346 140.394ZM490.68 125.782L497.346 118.477L493.653 115.106L486.986 122.412L490.68 125.782ZM504.013 111.171L510.68 103.866L506.986 100.495L500.32 107.801L504.013 111.171ZM517.346 96.5602L524.013 89.2546L520.32 85.8843L513.653 93.1898L517.346 96.5602ZM530.68 81.9491L537.346 74.6435L533.653 71.2732L526.986 78.5787L530.68 81.9491ZM544.013 67.338L547.346 63.6852L543.653 60.3148L540.32 63.9676L544.013 67.338Z" fill="#141E46"/>
<path d="M573 31C568.875 47.2623 560.167 54.8852 545.5 62C531.75 55.9016 522.583 46.7541 518 31C518 13.8792 530.312 0 545.5 0C560.688 0 573 13.8792 573 31ZM535.536 31C535.536 37.2032 539.997 42.232 545.5 42.232C551.003 42.232 555.464 37.2032 555.464 31C555.464 24.7968 551.003 19.768 545.5 19.768C539.997 19.768 535.536 24.7968 535.536 31Z" fill="#C70039"/>
</svg>
