<svg width="455" height="200" viewBox="0 0 455 200" fill="none" xmlns="http://www.w3.org/2000/svg">
<path d="M455 0H50C22.3858 0 0 22.3858 0 50V150C0 177.614 22.3858 200 50 200H334.47C359.766 200 381.055 181.1 385.755 156.245C390.216 132.653 396.82 104.159 405.56 83.1643C420.233 47.917 455 0 455 0Z" fill="#E9DDDD"/>
<path d="M59.92 50.66C59.6267 50.34 59.26 50.0533 58.82 49.8C58.3933 49.5467 57.78 49.42 56.98 49.42C56.14 49.42 55.5133 49.5733 55.1 49.88C54.6867 50.1733 54.48 50.5533 54.48 51.02C54.48 51.18 54.52 51.3533 54.6 51.54C54.68 51.7267 54.84 51.9067 55.08 52.08C55.32 52.2533 55.66 52.4067 56.1 52.54L59.26 53.44C60.4867 53.7733 61.38 54.3133 61.94 55.06C62.5 55.7933 62.78 56.6467 62.78 57.62C62.78 58.5533 62.54 59.3667 62.06 60.06C61.58 60.74 60.8933 61.2667 60 61.64C59.1067 62.0133 58.0467 62.2 56.82 62.2C55.9133 62.2 55.06 62.1 54.26 61.9C53.4733 61.6867 52.7733 61.3867 52.16 61C51.56 60.6 51.0867 60.14 50.74 59.62C50.6733 59.4867 50.6467 59.38 50.66 59.3C50.6733 59.2067 50.74 59.1133 50.86 59.02L52.4 57.96C52.56 57.8667 52.6867 57.8267 52.78 57.84C52.8867 57.8533 52.98 57.9067 53.06 58C53.38 58.4 53.6933 58.7333 54 59C54.32 59.2667 54.6867 59.46 55.1 59.58C55.5133 59.7 56.0067 59.76 56.58 59.76C57.4467 59.76 58.14 59.6267 58.66 59.36C59.18 59.08 59.44 58.6533 59.44 58.08C59.44 57.8533 59.3867 57.6467 59.28 57.46C59.1733 57.26 59 57.0867 58.76 56.94C58.5333 56.78 58.2067 56.6333 57.78 56.5L54.76 55.64C53.9733 55.4133 53.3133 55.0933 52.78 54.68C52.2467 54.2667 51.84 53.78 51.56 53.22C51.2933 52.66 51.16 52.0733 51.16 51.46C51.16 50.6067 51.3933 49.84 51.86 49.16C52.34 48.48 53.0067 47.9467 53.86 47.56C54.7267 47.16 55.7333 46.96 56.88 46.96C57.64 46.96 58.3467 47.0467 59 47.22C59.6667 47.3933 60.2667 47.6333 60.8 47.94C61.3333 48.2467 61.7667 48.62 62.1 49.06C62.1533 49.1267 62.1933 49.2067 62.22 49.3C62.2467 49.38 62.2067 49.4667 62.1 49.56L60.42 50.8C60.34 50.8533 60.2667 50.8733 60.2 50.86C60.1333 50.8333 60.04 50.7667 59.92 50.66ZM69.5152 62.2C68.4618 62.2 67.5285 61.9667 66.7152 61.5C65.9152 61.0333 65.2885 60.3933 64.8352 59.58C64.3818 58.7533 64.1552 57.8133 64.1552 56.76C64.1552 55.6533 64.3885 54.6867 64.8552 53.86C65.3218 53.02 65.9618 52.3667 66.7752 51.9C67.5885 51.4333 68.5085 51.2 69.5352 51.2C70.6152 51.2 71.5552 51.44 72.3552 51.92C73.1552 52.3867 73.7752 53.04 74.2152 53.88C74.6685 54.7067 74.8952 55.66 74.8952 56.74C74.8952 57.8067 74.6685 58.7533 74.2152 59.58C73.7618 60.3933 73.1285 61.0333 72.3152 61.5C71.5152 61.9667 70.5818 62.2 69.5152 62.2ZM69.5352 60.16C70.0285 60.16 70.4418 60.0333 70.7752 59.78C71.1085 59.5133 71.3552 59.12 71.5152 58.6C71.6885 58.08 71.7752 57.4467 71.7752 56.7C71.7752 55.9133 71.6885 55.2667 71.5152 54.76C71.3552 54.24 71.1085 53.8467 70.7752 53.58C70.4418 53.3133 70.0285 53.18 69.5352 53.18C69.0552 53.18 68.6418 53.3133 68.2952 53.58C67.9618 53.8467 67.7085 54.24 67.5352 54.76C67.3618 55.2667 67.2752 55.9133 67.2752 56.7C67.2752 57.46 67.3618 58.1 67.5352 58.62C67.7085 59.1267 67.9618 59.5133 68.2952 59.78C68.6418 60.0333 69.0552 60.16 69.5352 60.16ZM80.9878 59.98C81.4011 59.98 81.7878 59.8733 82.1478 59.66C82.5211 59.4333 82.8611 59.1467 83.1678 58.8V51.86C83.1678 51.5533 83.3411 51.4 83.6878 51.4H85.8478C86.1278 51.4 86.2678 51.54 86.2678 51.82L86.2278 61.64C86.2278 61.88 86.1211 62 85.9078 62H83.5278C83.3278 62 83.2278 61.8867 83.2278 61.66V60.68C83.2278 60.6 83.2078 60.5533 83.1678 60.54C83.1278 60.5133 83.0745 60.5333 83.0078 60.6C82.4478 61.1733 81.8878 61.5867 81.3278 61.84C80.7811 62.08 80.1945 62.2 79.5678 62.2C78.9811 62.2 78.4545 62.0733 77.9878 61.82C77.5345 61.5667 77.1745 61.2 76.9078 60.72C76.6411 60.2267 76.5078 59.6467 76.5078 58.98V51.88C76.5078 51.56 76.6678 51.4 76.9878 51.4H79.2078C79.4611 51.4 79.5878 51.54 79.5878 51.82V58.54C79.5878 58.98 79.7078 59.3333 79.9478 59.6C80.2011 59.8533 80.5478 59.98 80.9878 59.98ZM88.8638 62C88.5838 62 88.4438 61.8667 88.4438 61.6V51.78C88.4438 51.5267 88.5504 51.4 88.7638 51.4H91.1838C91.3838 51.4 91.4838 51.5133 91.4838 51.74V52.72C91.4838 52.8 91.5038 52.8533 91.5438 52.88C91.5838 52.9067 91.6438 52.88 91.7238 52.8C92.0704 52.48 92.4171 52.2 92.7638 51.96C93.1104 51.72 93.4771 51.5333 93.8638 51.4C94.2504 51.2667 94.6638 51.2 95.1038 51.2C96.0771 51.2 96.8438 51.4867 97.4038 52.06C97.9771 52.6333 98.2638 53.4 98.2638 54.36V61.52C98.2638 61.84 98.1038 62 97.7838 62H95.5638C95.4304 62 95.3304 61.9733 95.2638 61.92C95.2104 61.8533 95.1838 61.7467 95.1838 61.6V54.84C95.1838 54.3867 95.0571 54.04 94.8038 53.8C94.5638 53.5467 94.2038 53.42 93.7238 53.42C93.4438 53.42 93.1838 53.4667 92.9438 53.56C92.7038 53.6533 92.4704 53.7933 92.2438 53.98C92.0171 54.1533 91.7771 54.38 91.5238 54.66V61.54C91.5238 61.8467 91.3504 62 91.0038 62H88.8638ZM107.718 62C107.611 62 107.511 61.9733 107.418 61.92C107.338 61.8533 107.298 61.7467 107.298 61.6V61.04C107.298 60.9467 107.271 60.8933 107.218 60.88C107.164 60.8667 107.098 60.8933 107.018 60.96C106.804 61.16 106.564 61.36 106.298 61.56C106.031 61.7467 105.718 61.9 105.358 62.02C104.998 62.14 104.578 62.2 104.098 62.2C103.284 62.2 102.564 62 101.938 61.6C101.311 61.2 100.818 60.6 100.458 59.8C100.098 58.9867 99.9178 57.98 99.9178 56.78C99.9178 55.66 100.111 54.6867 100.498 53.86C100.898 53.02 101.431 52.3667 102.098 51.9C102.764 51.4333 103.498 51.2 104.298 51.2C104.831 51.2 105.304 51.2867 105.718 51.46C106.131 51.6333 106.531 51.9 106.918 52.26C107.024 52.34 107.104 52.3733 107.158 52.36C107.224 52.3333 107.258 52.2467 107.258 52.1V47.52C107.258 47.28 107.364 47.16 107.578 47.16H110.018C110.231 47.16 110.338 47.2867 110.338 47.54V61.58C110.338 61.7267 110.304 61.8333 110.238 61.9C110.171 61.9667 110.051 62 109.878 62H107.718ZM107.258 54.16C106.964 53.84 106.664 53.6 106.358 53.44C106.064 53.2667 105.724 53.18 105.338 53.18C104.898 53.18 104.498 53.3067 104.138 53.56C103.791 53.8 103.518 54.18 103.318 54.7C103.131 55.22 103.038 55.9 103.038 56.74C103.038 57.5933 103.131 58.28 103.318 58.8C103.518 59.32 103.784 59.7 104.118 59.94C104.464 60.1667 104.858 60.28 105.298 60.28C105.671 60.28 106.004 60.1933 106.298 60.02C106.591 59.8467 106.824 59.6267 106.998 59.36C107.171 59.0933 107.258 58.8133 107.258 58.52V54.16ZM119.085 54.16C118.859 53.8667 118.552 53.6133 118.165 53.4C117.779 53.1867 117.305 53.08 116.745 53.08C116.252 53.08 115.832 53.18 115.485 53.38C115.152 53.5667 114.985 53.8267 114.985 54.16C114.985 54.3333 115.052 54.5 115.185 54.66C115.319 54.8067 115.625 54.94 116.105 55.06L118.405 55.62C119.512 55.8733 120.299 56.2867 120.765 56.86C121.232 57.4333 121.465 58.0733 121.465 58.78C121.465 59.5 121.259 60.1133 120.845 60.62C120.445 61.1267 119.885 61.52 119.165 61.8C118.445 62.0667 117.619 62.2 116.685 62.2C115.499 62.2 114.492 61.9933 113.665 61.58C112.839 61.1533 112.259 60.6267 111.925 60C111.872 59.9067 111.845 59.82 111.845 59.74C111.845 59.6467 111.885 59.58 111.965 59.54L113.325 58.84C113.459 58.7733 113.559 58.7467 113.625 58.76C113.705 58.76 113.772 58.7933 113.825 58.86C113.999 59.1 114.205 59.3267 114.445 59.54C114.685 59.7533 114.985 59.9267 115.345 60.06C115.705 60.18 116.159 60.2333 116.705 60.22C117.079 60.22 117.412 60.18 117.705 60.1C118.012 60.0067 118.252 59.88 118.425 59.72C118.599 59.5467 118.685 59.3467 118.685 59.12C118.685 58.8933 118.592 58.7 118.405 58.54C118.219 58.3667 117.872 58.22 117.365 58.1L115.305 57.66C114.305 57.4333 113.545 57.08 113.025 56.6C112.519 56.1067 112.265 55.4667 112.265 54.68C112.265 54 112.439 53.4 112.785 52.88C113.145 52.36 113.665 51.9533 114.345 51.66C115.025 51.3533 115.839 51.2 116.785 51.2C117.799 51.2 118.672 51.3867 119.405 51.76C120.152 52.1333 120.685 52.58 121.005 53.1C121.059 53.18 121.099 53.2667 121.125 53.36C121.152 53.44 121.105 53.5133 120.985 53.58L119.545 54.28C119.452 54.32 119.365 54.3333 119.285 54.32C119.219 54.2933 119.152 54.24 119.085 54.16ZM137.992 50.94C138.112 50.94 138.205 50.9733 138.272 51.04C138.352 51.1067 138.392 51.22 138.392 51.38V52.74C138.392 52.9267 138.352 53.06 138.272 53.14C138.192 53.2067 138.079 53.2267 137.932 53.2C137.759 53.1733 137.585 53.16 137.412 53.16C137.252 53.1467 137.112 53.1533 136.992 53.18C136.632 53.2333 136.499 53.3867 136.592 53.64C136.619 53.76 136.652 53.8933 136.692 54.04C136.745 54.1867 136.772 54.3533 136.772 54.54C136.772 55.14 136.592 55.6933 136.232 56.2C135.885 56.6933 135.352 57.0867 134.632 57.38C133.912 57.6733 133.019 57.82 131.952 57.82C131.419 57.82 130.992 57.8533 130.672 57.92C130.352 57.9733 130.119 58.0533 129.972 58.16C129.839 58.2533 129.772 58.36 129.772 58.48C129.772 58.6533 129.872 58.78 130.072 58.86C130.285 58.9267 130.605 58.9733 131.032 59L133.892 59.16C135.252 59.24 136.245 59.54 136.872 60.06C137.499 60.58 137.812 61.2467 137.812 62.06C137.812 63.0733 137.332 63.9 136.372 64.54C135.412 65.18 133.999 65.5 132.132 65.5C130.199 65.5 128.745 65.2867 127.772 64.86C126.799 64.4333 126.312 63.7867 126.312 62.92C126.312 62.4533 126.492 62.0733 126.852 61.78C127.212 61.4867 127.672 61.24 128.232 61.04C128.405 60.9733 128.405 60.9 128.232 60.82C127.899 60.66 127.619 60.4667 127.392 60.24C127.179 60 127.072 59.7 127.072 59.34C127.072 59.0733 127.159 58.8333 127.332 58.62C127.505 58.3933 127.739 58.1867 128.032 58C128.325 57.8133 128.652 57.6533 129.012 57.52C129.079 57.4933 129.125 57.46 129.152 57.42C129.179 57.3667 129.145 57.32 129.052 57.28C128.425 56.9867 127.945 56.6133 127.612 56.16C127.279 55.7067 127.112 55.1733 127.112 54.56C127.112 53.5733 127.539 52.7733 128.392 52.16C129.259 51.5467 130.519 51.24 132.172 51.24C132.905 51.24 133.539 51.32 134.072 51.48C134.605 51.64 135.039 51.86 135.372 52.14C135.465 52.2067 135.559 52.24 135.652 52.24C135.759 52.2267 135.845 52.18 135.912 52.1C136.085 51.8867 136.292 51.6933 136.532 51.52C136.772 51.3467 137.025 51.2067 137.292 51.1C137.559 50.9933 137.792 50.94 137.992 50.94ZM131.932 56.3C132.639 56.3 133.152 56.14 133.472 55.82C133.805 55.4867 133.972 55.08 133.972 54.6C133.972 54.0667 133.805 53.6333 133.472 53.3C133.152 52.9533 132.639 52.78 131.932 52.78C131.279 52.78 130.772 52.9533 130.412 53.3C130.052 53.6333 129.872 54.0667 129.872 54.6C129.872 55.08 130.052 55.4867 130.412 55.82C130.772 56.14 131.279 56.3 131.932 56.3ZM130.452 61.4C130.185 61.3867 129.932 61.4267 129.692 61.52C129.452 61.6133 129.252 61.7467 129.092 61.92C128.932 62.0933 128.852 62.2933 128.852 62.52C128.852 62.8267 128.965 63.0933 129.192 63.32C129.419 63.5467 129.785 63.72 130.292 63.84C130.799 63.96 131.479 64.02 132.332 64.02C133.239 64.02 133.925 63.8933 134.392 63.64C134.872 63.4 135.112 63.0533 135.112 62.6C135.112 62.32 134.979 62.08 134.712 61.88C134.459 61.68 134.065 61.5667 133.532 61.54L130.452 61.4ZM144.183 62.2C143.13 62.2 142.196 61.9667 141.383 61.5C140.583 61.0333 139.956 60.3933 139.503 59.58C139.05 58.7533 138.823 57.8133 138.823 56.76C138.823 55.6533 139.056 54.6867 139.523 53.86C139.99 53.02 140.63 52.3667 141.443 51.9C142.256 51.4333 143.176 51.2 144.203 51.2C145.283 51.2 146.223 51.44 147.023 51.92C147.823 52.3867 148.443 53.04 148.883 53.88C149.336 54.7067 149.563 55.66 149.563 56.74C149.563 57.8067 149.336 58.7533 148.883 59.58C148.43 60.3933 147.796 61.0333 146.983 61.5C146.183 61.9667 145.25 62.2 144.183 62.2ZM144.203 60.16C144.696 60.16 145.11 60.0333 145.443 59.78C145.776 59.5133 146.023 59.12 146.183 58.6C146.356 58.08 146.443 57.4467 146.443 56.7C146.443 55.9133 146.356 55.2667 146.183 54.76C146.023 54.24 145.776 53.8467 145.443 53.58C145.11 53.3133 144.696 53.18 144.203 53.18C143.723 53.18 143.31 53.3133 142.963 53.58C142.63 53.8467 142.376 54.24 142.203 54.76C142.03 55.2667 141.943 55.9133 141.943 56.7C141.943 57.46 142.03 58.1 142.203 58.62C142.376 59.1267 142.63 59.5133 142.963 59.78C143.31 60.0333 143.723 60.16 144.203 60.16ZM156.156 62.2C155.102 62.2 154.169 61.9667 153.356 61.5C152.556 61.0333 151.929 60.3933 151.476 59.58C151.022 58.7533 150.796 57.8133 150.796 56.76C150.796 55.6533 151.029 54.6867 151.496 53.86C151.962 53.02 152.602 52.3667 153.416 51.9C154.229 51.4333 155.149 51.2 156.176 51.2C157.256 51.2 158.196 51.44 158.996 51.92C159.796 52.3867 160.416 53.04 160.856 53.88C161.309 54.7067 161.536 55.66 161.536 56.74C161.536 57.8067 161.309 58.7533 160.856 59.58C160.402 60.3933 159.769 61.0333 158.956 61.5C158.156 61.9667 157.222 62.2 156.156 62.2ZM156.176 60.16C156.669 60.16 157.082 60.0333 157.416 59.78C157.749 59.5133 157.996 59.12 158.156 58.6C158.329 58.08 158.416 57.4467 158.416 56.7C158.416 55.9133 158.329 55.2667 158.156 54.76C157.996 54.24 157.749 53.8467 157.416 53.58C157.082 53.3133 156.669 53.18 156.176 53.18C155.696 53.18 155.282 53.3133 154.936 53.58C154.602 53.8467 154.349 54.24 154.176 54.76C154.002 55.2667 153.916 55.9133 153.916 56.7C153.916 57.46 154.002 58.1 154.176 58.62C154.349 59.1267 154.602 59.5133 154.936 59.78C155.282 60.0333 155.696 60.16 156.176 60.16ZM170.608 62C170.502 62 170.402 61.9733 170.308 61.92C170.228 61.8533 170.188 61.7467 170.188 61.6V61.04C170.188 60.9467 170.162 60.8933 170.108 60.88C170.055 60.8667 169.988 60.8933 169.908 60.96C169.695 61.16 169.455 61.36 169.188 61.56C168.922 61.7467 168.608 61.9 168.248 62.02C167.888 62.14 167.468 62.2 166.988 62.2C166.175 62.2 165.455 62 164.828 61.6C164.202 61.2 163.708 60.6 163.348 59.8C162.988 58.9867 162.808 57.98 162.808 56.78C162.808 55.66 163.002 54.6867 163.388 53.86C163.788 53.02 164.322 52.3667 164.988 51.9C165.655 51.4333 166.388 51.2 167.188 51.2C167.722 51.2 168.195 51.2867 168.608 51.46C169.022 51.6333 169.422 51.9 169.808 52.26C169.915 52.34 169.995 52.3733 170.048 52.36C170.115 52.3333 170.148 52.2467 170.148 52.1V47.52C170.148 47.28 170.255 47.16 170.468 47.16H172.908C173.122 47.16 173.228 47.2867 173.228 47.54V61.58C173.228 61.7267 173.195 61.8333 173.128 61.9C173.062 61.9667 172.942 62 172.768 62H170.608ZM170.148 54.16C169.855 53.84 169.555 53.6 169.248 53.44C168.955 53.2667 168.615 53.18 168.228 53.18C167.788 53.18 167.388 53.3067 167.028 53.56C166.682 53.8 166.408 54.18 166.208 54.7C166.022 55.22 165.928 55.9 165.928 56.74C165.928 57.5933 166.022 58.28 166.208 58.8C166.408 59.32 166.675 59.7 167.008 59.94C167.355 60.1667 167.748 60.28 168.188 60.28C168.562 60.28 168.895 60.1933 169.188 60.02C169.482 59.8467 169.715 59.6267 169.888 59.36C170.062 59.0933 170.148 58.8133 170.148 58.52V54.16ZM178.616 61.52C178.616 61.84 178.436 62 178.076 62H175.716C175.423 62 175.276 61.86 175.276 61.58V59.1C175.276 58.86 175.376 58.74 175.576 58.74H178.316C178.516 58.74 178.616 58.8467 178.616 59.06V61.52ZM177.976 56.92C177.963 57.08 177.916 57.1933 177.836 57.26C177.756 57.3267 177.623 57.36 177.436 57.36H176.376C176.216 57.36 176.109 57.3333 176.056 57.28C176.016 57.2133 175.983 57.1067 175.956 56.96L175.196 47.52C175.183 47.4 175.203 47.3133 175.256 47.26C175.323 47.1933 175.403 47.16 175.496 47.16H178.436C178.649 47.16 178.743 47.2733 178.716 47.5L177.976 56.92ZM188.31 47.16C188.524 47.16 188.63 47.28 188.63 47.52V61.52C188.63 61.6933 188.584 61.82 188.49 61.9C188.41 61.9667 188.277 62 188.09 62H185.57C185.397 62 185.277 61.9667 185.21 61.9C185.157 61.8333 185.13 61.7267 185.13 61.58V47.54C185.13 47.2867 185.237 47.16 185.45 47.16H188.31ZM200.96 60.98C200.547 61.3533 200.08 61.6533 199.56 61.88C199.053 62.0933 198.467 62.2 197.8 62.2C196.787 62.2 195.987 61.9267 195.4 61.38C194.827 60.8333 194.54 60.1333 194.54 59.28C194.54 58.5333 194.773 57.88 195.24 57.32C195.707 56.76 196.373 56.3267 197.24 56.02C198.107 55.7 199.14 55.5267 200.34 55.5L201.04 55.44C201.12 55.44 201.193 55.42 201.26 55.38C201.327 55.34 201.36 55.2667 201.36 55.16V54.74C201.36 54.2333 201.213 53.84 200.92 53.56C200.627 53.2667 200.207 53.12 199.66 53.12C199.26 53.12 198.873 53.2133 198.5 53.4C198.14 53.5733 197.833 53.88 197.58 54.32C197.54 54.4133 197.493 54.4733 197.44 54.5C197.387 54.5267 197.287 54.5267 197.14 54.5L195.14 54.04C195.06 54.0133 195 53.9733 194.96 53.92C194.933 53.8533 194.96 53.72 195.04 53.52C195.373 52.7333 195.947 52.1533 196.76 51.78C197.587 51.3933 198.6 51.2 199.8 51.2C200.907 51.2 201.787 51.34 202.44 51.62C203.093 51.9 203.567 52.2933 203.86 52.8C204.153 53.2933 204.3 53.8733 204.3 54.54V61.56C204.3 61.72 204.273 61.8333 204.22 61.9C204.167 61.9667 204.067 62 203.92 62H201.86C201.713 62 201.607 61.9467 201.54 61.84C201.487 61.7333 201.453 61.6 201.44 61.44L201.4 61C201.373 60.76 201.227 60.7533 200.96 60.98ZM201.36 57.28C201.36 57.0533 201.26 56.94 201.06 56.94L200.5 56.98C200.153 56.9933 199.807 57.0467 199.46 57.14C199.113 57.22 198.8 57.34 198.52 57.5C198.24 57.6467 198.007 57.84 197.82 58.08C197.647 58.3067 197.56 58.5733 197.56 58.88C197.56 59.28 197.7 59.6 197.98 59.84C198.26 60.0667 198.647 60.18 199.14 60.18C199.473 60.18 199.767 60.1267 200.02 60.02C200.287 59.9133 200.513 59.7867 200.7 59.64C200.9 59.4667 201.06 59.2933 201.18 59.12C201.3 58.9467 201.36 58.7667 201.36 58.58V57.28ZM206.95 62C206.67 62 206.53 61.8667 206.53 61.6V51.78C206.53 51.5267 206.636 51.4 206.85 51.4H209.25C209.45 51.4 209.55 51.5133 209.55 51.74V52.72C209.55 52.8 209.57 52.8533 209.61 52.88C209.663 52.9067 209.723 52.88 209.79 52.8C210.136 52.48 210.483 52.2 210.83 51.96C211.176 51.72 211.543 51.5333 211.93 51.4C212.316 51.2533 212.716 51.18 213.13 51.18C213.85 51.18 214.45 51.3533 214.93 51.7C215.423 52.0333 215.77 52.48 215.97 53.04C215.996 53.0933 216.03 53.12 216.07 53.12C216.123 53.1067 216.176 53.0733 216.23 53.02C216.55 52.6733 216.896 52.3667 217.27 52.1C217.656 51.82 218.063 51.6 218.49 51.44C218.916 51.28 219.336 51.2 219.75 51.2C220.683 51.2 221.423 51.4867 221.97 52.06C222.53 52.6333 222.81 53.42 222.81 54.42V61.52C222.81 61.84 222.65 62 222.33 62H220.11C219.976 62 219.876 61.9733 219.81 61.92C219.756 61.8533 219.73 61.7467 219.73 61.6V54.84C219.73 54.3867 219.61 54.04 219.37 53.8C219.13 53.5467 218.79 53.42 218.35 53.42C218.096 53.42 217.85 53.4733 217.61 53.58C217.37 53.6867 217.15 53.8133 216.95 53.96C216.75 54.1067 216.576 54.2667 216.43 54.44C216.336 54.5333 216.276 54.6267 216.25 54.72C216.223 54.8 216.21 54.8933 216.21 55V61.52C216.21 61.84 216.05 62 215.73 62H213.53C213.396 62 213.296 61.9733 213.23 61.92C213.176 61.8533 213.15 61.7467 213.15 61.6V54.84C213.15 54.3867 213.03 54.04 212.79 53.8C212.55 53.5467 212.203 53.42 211.75 53.42C211.35 53.42 210.983 53.5267 210.65 53.74C210.316 53.94 209.97 54.2467 209.61 54.66V61.54C209.61 61.8467 209.436 62 209.09 62H206.95ZM231.73 57.6C231.73 58.0933 231.843 58.5333 232.07 58.92C232.31 59.2933 232.623 59.5867 233.01 59.8C233.41 60 233.856 60.1 234.35 60.1C234.83 60.1 235.27 60 235.67 59.8C236.083 59.5867 236.496 59.24 236.91 58.76C236.963 58.7067 237.01 58.68 237.05 58.68C237.09 58.6667 237.163 58.6867 237.27 58.74L238.71 59.34C238.896 59.42 238.916 59.5533 238.77 59.74C238.343 60.3533 237.896 60.84 237.43 61.2C236.963 61.56 236.443 61.82 235.87 61.98C235.31 62.1267 234.676 62.2 233.97 62.2C232.93 62.2 232.003 61.9733 231.19 61.52C230.376 61.0667 229.73 60.44 229.25 59.64C228.783 58.8267 228.55 57.9 228.55 56.86C228.55 55.7133 228.79 54.72 229.27 53.88C229.763 53.0267 230.416 52.3667 231.23 51.9C232.043 51.4333 232.936 51.2 233.91 51.2C234.936 51.2 235.836 51.4267 236.61 51.88C237.383 52.32 237.99 52.9533 238.43 53.78C238.883 54.6067 239.11 55.6133 239.11 56.8C239.11 56.9467 239.096 57.06 239.07 57.14C239.043 57.22 238.943 57.2667 238.77 57.28H231.97C231.89 57.28 231.83 57.3067 231.79 57.36C231.75 57.4133 231.73 57.4933 231.73 57.6ZM235.75 55.6C235.896 55.6 235.99 55.5867 236.03 55.56C236.07 55.52 236.09 55.44 236.09 55.32C236.09 54.9867 236.01 54.6467 235.85 54.3C235.703 53.9533 235.476 53.6667 235.17 53.44C234.876 53.2 234.496 53.08 234.03 53.08C233.59 53.08 233.196 53.1867 232.85 53.4C232.503 53.6133 232.236 53.9133 232.05 54.3C231.863 54.6733 231.77 55.1 231.77 55.58L235.75 55.6ZM250.185 61.32C250.358 61.5733 250.432 61.7533 250.405 61.86C250.392 61.9533 250.272 62 250.045 62H247.485C247.165 62 246.938 61.8933 246.805 61.68L244.745 58.78C244.638 58.62 244.558 58.54 244.505 58.54C244.465 58.54 244.385 58.6133 244.265 58.76L242.165 61.68C242.032 61.8933 241.812 62 241.505 62H239.865C239.638 62 239.485 61.94 239.405 61.82C239.325 61.7 239.398 61.4933 239.625 61.2L242.905 56.98C242.985 56.86 243.018 56.76 243.005 56.68C243.005 56.5867 242.965 56.48 242.885 56.36L239.645 51.96C239.552 51.84 239.532 51.72 239.585 51.6C239.638 51.4667 239.758 51.4 239.945 51.4H242.385C242.558 51.4 242.692 51.4267 242.785 51.48C242.878 51.52 242.958 51.6 243.025 51.72L244.885 54.34C245.005 54.5267 245.118 54.5267 245.225 54.34L246.985 51.72C247.065 51.6 247.145 51.52 247.225 51.48C247.318 51.4267 247.458 51.4 247.645 51.4H249.445C249.645 51.4 249.752 51.4467 249.765 51.54C249.792 51.6333 249.758 51.74 249.665 51.86L246.685 55.9C246.592 56.02 246.552 56.12 246.565 56.2C246.578 56.28 246.625 56.38 246.705 56.5L250.185 61.32ZM255.686 51.2C256.553 51.2 257.286 51.3533 257.886 51.66C258.499 51.9533 258.999 52.3333 259.386 52.8C259.773 53.2667 260.046 53.7467 260.206 54.24C260.299 54.5067 260.219 54.6467 259.966 54.66L257.866 54.86C257.719 54.8733 257.619 54.8 257.566 54.64C257.446 54.3867 257.313 54.1533 257.166 53.94C257.019 53.7267 256.839 53.5533 256.626 53.42C256.413 53.2867 256.133 53.22 255.786 53.22C255.333 53.22 254.933 53.3467 254.586 53.6C254.239 53.8533 253.966 54.24 253.766 54.76C253.579 55.2667 253.486 55.9133 253.486 56.7C253.486 57.5 253.586 58.16 253.786 58.68C253.986 59.2 254.266 59.5867 254.626 59.84C254.999 60.0933 255.439 60.22 255.946 60.22C256.533 60.22 256.993 60.0667 257.326 59.76C257.673 59.4533 257.999 59.04 258.306 58.52C258.346 58.4533 258.386 58.4133 258.426 58.4C258.466 58.3867 258.539 58.3933 258.646 58.42L260.126 58.76C260.273 58.8 260.319 58.9267 260.266 59.14C260.159 59.4333 259.993 59.76 259.766 60.12C259.539 60.48 259.239 60.8133 258.866 61.12C258.506 61.4267 258.059 61.6867 257.526 61.9C257.006 62.1 256.393 62.2 255.686 62.2C254.659 62.2 253.746 61.9733 252.946 61.52C252.146 61.0533 251.513 60.4133 251.046 59.6C250.593 58.7733 250.366 57.82 250.366 56.74C250.366 55.6467 250.599 54.6867 251.066 53.86C251.533 53.02 252.166 52.3667 252.966 51.9C253.766 51.4333 254.673 51.2 255.686 51.2ZM264.942 61.52C264.942 61.6933 264.902 61.82 264.822 61.9C264.742 61.9667 264.602 62 264.402 62H262.302C262.128 62 262.008 61.9667 261.942 61.9C261.888 61.8333 261.862 61.7267 261.862 61.58V51.78C261.862 51.5267 261.968 51.4 262.182 51.4H264.642C264.842 51.4 264.942 51.5133 264.942 51.74V61.52ZM264.982 49.62C264.982 49.9533 264.802 50.12 264.442 50.12H262.282C262.108 50.12 261.988 50.08 261.922 50C261.868 49.92 261.842 49.8067 261.842 49.66V47.56C261.842 47.2933 261.955 47.16 262.182 47.16H264.662C264.875 47.16 264.982 47.2867 264.982 47.54V49.62ZM271.615 53.52C271.468 53.52 271.395 53.6 271.395 53.76V58.58C271.395 59.0333 271.501 59.36 271.715 59.56C271.928 59.7467 272.268 59.84 272.735 59.84H273.815C273.908 59.84 273.981 59.8733 274.035 59.94C274.088 60.0067 274.115 60.0867 274.115 60.18L274.095 61.4C274.095 61.6533 273.948 61.8133 273.655 61.88C273.415 61.9067 273.155 61.9333 272.875 61.96C272.608 61.9733 272.335 61.9867 272.055 62C271.788 62 271.528 62 271.275 62C270.368 62 269.648 61.7867 269.115 61.36C268.581 60.92 268.315 60.2733 268.315 59.42V53.82C268.315 53.62 268.228 53.52 268.055 53.52H266.835C266.581 53.52 266.455 53.4067 266.455 53.18V51.7C266.455 51.5 266.575 51.4 266.815 51.4H268.195C268.315 51.4 268.381 51.3267 268.395 51.18L268.675 48.14C268.688 47.9133 268.788 47.8 268.975 47.8H271.155C271.368 47.8 271.475 47.9267 271.475 48.18V51.18C271.475 51.3133 271.541 51.38 271.675 51.38H273.775C274.015 51.38 274.135 51.4867 274.135 51.7V53.18C274.135 53.4067 274.001 53.52 273.735 53.52H271.615ZM278.155 57.6C278.155 58.0933 278.269 58.5333 278.495 58.92C278.735 59.2933 279.049 59.5867 279.435 59.8C279.835 60 280.282 60.1 280.775 60.1C281.255 60.1 281.695 60 282.095 59.8C282.509 59.5867 282.922 59.24 283.335 58.76C283.389 58.7067 283.435 58.68 283.475 58.68C283.515 58.6667 283.589 58.6867 283.695 58.74L285.135 59.34C285.322 59.42 285.342 59.5533 285.195 59.74C284.769 60.3533 284.322 60.84 283.855 61.2C283.389 61.56 282.869 61.82 282.295 61.98C281.735 62.1267 281.102 62.2 280.395 62.2C279.355 62.2 278.429 61.9733 277.615 61.52C276.802 61.0667 276.155 60.44 275.675 59.64C275.209 58.8267 274.975 57.9 274.975 56.86C274.975 55.7133 275.215 54.72 275.695 53.88C276.189 53.0267 276.842 52.3667 277.655 51.9C278.469 51.4333 279.362 51.2 280.335 51.2C281.362 51.2 282.262 51.4267 283.035 51.88C283.809 52.32 284.415 52.9533 284.855 53.78C285.309 54.6067 285.535 55.6133 285.535 56.8C285.535 56.9467 285.522 57.06 285.495 57.14C285.469 57.22 285.369 57.2667 285.195 57.28H278.395C278.315 57.28 278.255 57.3067 278.215 57.36C278.175 57.4133 278.155 57.4933 278.155 57.6ZM282.175 55.6C282.322 55.6 282.415 55.5867 282.455 55.56C282.495 55.52 282.515 55.44 282.515 55.32C282.515 54.9867 282.435 54.6467 282.275 54.3C282.129 53.9533 281.902 53.6667 281.595 53.44C281.302 53.2 280.922 53.08 280.455 53.08C280.015 53.08 279.622 53.1867 279.275 53.4C278.929 53.6133 278.662 53.9133 278.475 54.3C278.289 54.6733 278.195 55.1 278.195 55.58L282.175 55.6ZM294.534 62C294.428 62 294.328 61.9733 294.234 61.92C294.154 61.8533 294.114 61.7467 294.114 61.6V61.04C294.114 60.9467 294.088 60.8933 294.034 60.88C293.981 60.8667 293.914 60.8933 293.834 60.96C293.621 61.16 293.381 61.36 293.114 61.56C292.848 61.7467 292.534 61.9 292.174 62.02C291.814 62.14 291.394 62.2 290.914 62.2C290.101 62.2 289.381 62 288.754 61.6C288.128 61.2 287.634 60.6 287.274 59.8C286.914 58.9867 286.734 57.98 286.734 56.78C286.734 55.66 286.928 54.6867 287.314 53.86C287.714 53.02 288.248 52.3667 288.914 51.9C289.581 51.4333 290.314 51.2 291.114 51.2C291.648 51.2 292.121 51.2867 292.534 51.46C292.948 51.6333 293.348 51.9 293.734 52.26C293.841 52.34 293.921 52.3733 293.974 52.36C294.041 52.3333 294.074 52.2467 294.074 52.1V47.52C294.074 47.28 294.181 47.16 294.394 47.16H296.834C297.048 47.16 297.154 47.2867 297.154 47.54V61.58C297.154 61.7267 297.121 61.8333 297.054 61.9C296.988 61.9667 296.868 62 296.694 62H294.534ZM294.074 54.16C293.781 53.84 293.481 53.6 293.174 53.44C292.881 53.2667 292.541 53.18 292.154 53.18C291.714 53.18 291.314 53.3067 290.954 53.56C290.608 53.8 290.334 54.18 290.134 54.7C289.948 55.22 289.854 55.9 289.854 56.74C289.854 57.5933 289.948 58.28 290.134 58.8C290.334 59.32 290.601 59.7 290.934 59.94C291.281 60.1667 291.674 60.28 292.114 60.28C292.488 60.28 292.821 60.1933 293.114 60.02C293.408 59.8467 293.641 59.6267 293.814 59.36C293.988 59.0933 294.074 58.8133 294.074 58.52V54.16ZM302.542 61.52C302.542 61.84 302.362 62 302.002 62H299.642C299.348 62 299.202 61.86 299.202 61.58V59.1C299.202 58.86 299.302 58.74 299.502 58.74H302.242C302.442 58.74 302.542 58.8467 302.542 59.06V61.52ZM301.902 56.92C301.888 57.08 301.842 57.1933 301.762 57.26C301.682 57.3267 301.548 57.36 301.362 57.36H300.302C300.142 57.36 300.035 57.3333 299.982 57.28C299.942 57.2133 299.908 57.1067 299.882 56.96L299.122 47.52C299.108 47.4 299.128 47.3133 299.182 47.26C299.248 47.1933 299.328 47.16 299.422 47.16H302.362C302.575 47.16 302.668 47.2733 302.642 47.5L301.902 56.92Z" fill="#12486B"/>
</svg>
