<svg width="470" height="180" viewBox="0 0 470 180" fill="none" xmlns="http://www.w3.org/2000/svg">
<path d="M0 0H420C447.614 0 470 22.3858 470 50V130C470 157.614 447.614 180 420 180H122.264C97.303 180 76.2189 161.56 70.7742 137.2C66.1881 116.681 59.6183 92.7387 51.0703 74.8479C35.9136 43.1253 0 0 0 0Z" fill="#E9DDDD"/>
<path d="M103.96 31.92C103.613 31.5067 103.167 31.1533 102.62 30.86C102.073 30.5667 101.387 30.42 100.56 30.42C99.56 30.42 98.7733 30.64 98.2 31.08C97.6267 31.52 97.34 32.1333 97.34 32.92C97.34 33.1333 97.3867 33.38 97.48 33.66C97.5867 33.94 97.7933 34.2133 98.1 34.48C98.4067 34.7467 98.8667 34.9867 99.48 35.2L102.38 36.16C103.593 36.56 104.453 37.0933 104.96 37.76C105.467 38.4133 105.72 39.1867 105.72 40.08C105.72 40.9333 105.507 41.6733 105.08 42.3C104.653 42.9133 104.047 43.3867 103.26 43.72C102.473 44.04 101.527 44.2 100.42 44.2C99.62 44.2 98.88 44.1067 98.2 43.92C97.52 43.72 96.9133 43.44 96.38 43.08C95.86 42.7067 95.4133 42.2467 95.04 41.7C94.9733 41.6067 94.9467 41.5267 94.96 41.46C94.9867 41.38 95.0533 41.3 95.16 41.22L95.88 40.72C96.0133 40.64 96.1133 40.6 96.18 40.6C96.26 40.6 96.3267 40.64 96.38 40.72C96.74 41.1733 97.0933 41.5533 97.44 41.86C97.7867 42.1533 98.1867 42.3733 98.64 42.52C99.1067 42.6667 99.6733 42.74 100.34 42.74C101.393 42.74 102.247 42.5533 102.9 42.18C103.553 41.7933 103.88 41.16 103.88 40.28C103.88 39.9467 103.813 39.6467 103.68 39.38C103.547 39.1 103.32 38.8467 103 38.62C102.68 38.38 102.22 38.1467 101.62 37.92L98.58 36.88C97.8467 36.6267 97.2533 36.3 96.8 35.9C96.3467 35.5 96.0133 35.06 95.8 34.58C95.6 34.1 95.5 33.6067 95.5 33.1C95.5 32.26 95.7133 31.5333 96.14 30.92C96.5667 30.2933 97.1533 29.8133 97.9 29.48C98.66 29.1333 99.5467 28.96 100.56 28.96C101.24 28.96 101.86 29.04 102.42 29.2C102.993 29.36 103.513 29.5867 103.98 29.88C104.46 30.1733 104.88 30.5267 105.24 30.94C105.293 30.9933 105.327 31.0533 105.34 31.12C105.353 31.1867 105.32 31.2533 105.24 31.32L104.32 32.04C104.253 32.08 104.2 32.0933 104.16 32.08C104.12 32.0533 104.053 32 103.96 31.92ZM112.793 44.2C111.793 44.2 110.906 43.9733 110.133 43.52C109.373 43.0533 108.779 42.4133 108.353 41.6C107.939 40.7733 107.733 39.8267 107.733 38.76C107.733 37.6533 107.946 36.6867 108.373 35.86C108.813 35.02 109.413 34.3667 110.173 33.9C110.933 33.4333 111.813 33.2 112.813 33.2C113.826 33.2 114.706 33.44 115.453 33.92C116.213 34.3867 116.799 35.04 117.213 35.88C117.639 36.7067 117.853 37.66 117.853 38.74C117.853 39.8067 117.639 40.7533 117.213 41.58C116.786 42.3933 116.193 43.0333 115.433 43.5C114.686 43.9667 113.806 44.2 112.793 44.2ZM112.833 42.94C113.526 42.94 114.119 42.7733 114.613 42.44C115.106 42.0933 115.479 41.6067 115.733 40.98C115.999 40.34 116.133 39.58 116.133 38.7C116.133 37.82 115.999 37.0667 115.733 36.44C115.466 35.8 115.086 35.3067 114.593 34.96C114.099 34.6133 113.506 34.44 112.813 34.44C112.133 34.44 111.539 34.6133 111.033 34.96C110.526 35.3067 110.133 35.8 109.853 36.44C109.586 37.0667 109.452 37.82 109.452 38.7C109.452 39.5667 109.586 40.32 109.853 40.96C110.133 41.6 110.526 42.0933 111.033 42.44C111.539 42.7733 112.139 42.94 112.833 42.94ZM134.183 33.22C134.316 33.22 134.409 33.2467 134.463 33.3C134.529 33.3533 134.563 33.4333 134.563 33.54V34.24C134.563 34.36 134.529 34.4533 134.463 34.52C134.409 34.5867 134.309 34.6133 134.163 34.6C133.949 34.6 133.763 34.6133 133.603 34.64C133.443 34.6667 133.283 34.7133 133.123 34.78C132.803 34.9 132.669 35.0533 132.723 35.24C132.789 35.3867 132.863 35.5667 132.943 35.78C133.023 35.98 133.062 36.2533 133.062 36.6C133.062 37.1867 132.909 37.7267 132.603 38.22C132.296 38.7 131.816 39.0867 131.163 39.38C130.523 39.6733 129.709 39.82 128.723 39.82C128.043 39.82 127.509 39.86 127.123 39.94C126.736 40.02 126.463 40.1267 126.303 40.26C126.143 40.3933 126.063 40.5333 126.063 40.68C126.063 40.8933 126.203 41.0467 126.483 41.14C126.776 41.2333 127.243 41.3 127.883 41.34L130.463 41.48C131.636 41.5467 132.496 41.8267 133.043 42.32C133.589 42.8133 133.863 43.46 133.863 44.26C133.863 45.26 133.416 46.0467 132.523 46.62C131.643 47.2067 130.383 47.5 128.743 47.5C127.049 47.5 125.756 47.2533 124.863 46.76C123.983 46.28 123.543 45.5867 123.543 44.68C123.543 44.2133 123.703 43.7933 124.023 43.42C124.356 43.0467 124.823 42.7133 125.423 42.42C125.569 42.3533 125.569 42.28 125.423 42.2C125.129 42.0667 124.903 41.9067 124.743 41.72C124.583 41.52 124.503 41.2867 124.503 41.02C124.503 40.8333 124.563 40.6467 124.683 40.46C124.803 40.2733 124.976 40.1 125.203 39.94C125.443 39.78 125.729 39.64 126.063 39.52C126.143 39.4933 126.183 39.46 126.183 39.42C126.183 39.38 126.149 39.3333 126.083 39.28C125.496 38.9867 125.063 38.62 124.783 38.18C124.503 37.74 124.363 37.2133 124.363 36.6C124.363 35.56 124.756 34.74 125.543 34.14C126.329 33.54 127.443 33.24 128.883 33.24C129.576 33.24 130.163 33.32 130.643 33.48C131.136 33.64 131.549 33.86 131.883 34.14C131.963 34.2067 132.036 34.24 132.103 34.24C132.169 34.24 132.236 34.2067 132.303 34.14C132.463 33.9933 132.643 33.8533 132.843 33.72C133.043 33.5733 133.256 33.4533 133.483 33.36C133.723 33.2667 133.956 33.22 134.183 33.22ZM128.723 38.76C129.656 38.76 130.349 38.5733 130.803 38.2C131.256 37.8133 131.483 37.2733 131.483 36.58C131.483 35.8733 131.256 35.32 130.803 34.92C130.349 34.5067 129.656 34.3 128.723 34.3C127.829 34.3 127.136 34.5067 126.643 34.92C126.163 35.32 125.923 35.8733 125.923 36.58C125.923 37.2733 126.163 37.8133 126.643 38.2C127.136 38.5733 127.829 38.76 128.723 38.76ZM126.963 42.7C126.723 42.6867 126.456 42.76 126.163 42.92C125.869 43.0667 125.609 43.2733 125.383 43.54C125.156 43.8067 125.043 44.12 125.043 44.48C125.043 44.8933 125.183 45.2467 125.463 45.54C125.756 45.8467 126.189 46.0733 126.763 46.22C127.349 46.38 128.069 46.46 128.923 46.46C130.029 46.46 130.869 46.2933 131.443 45.96C132.016 45.64 132.303 45.14 132.303 44.46C132.303 44.02 132.149 43.66 131.843 43.38C131.549 43.1 131.036 42.94 130.303 42.9L126.963 42.7ZM138.334 43.66C138.334 43.7933 138.307 43.8867 138.254 43.94C138.2 43.98 138.107 44 137.974 44H136.934C136.734 44 136.634 43.9067 136.634 43.72L136.654 29.44C136.654 29.2533 136.734 29.16 136.894 29.16H138.094C138.254 29.16 138.334 29.2467 138.334 29.42V43.66ZM147.519 42.72C147.026 43.2 146.486 43.5667 145.899 43.82C145.326 44.0733 144.679 44.2 143.959 44.2C142.919 44.2 142.099 43.9333 141.499 43.4C140.912 42.8667 140.619 42.1667 140.619 41.3C140.619 40.5933 140.819 39.9867 141.219 39.48C141.619 38.96 142.212 38.5533 142.999 38.26C143.786 37.9533 144.752 37.7667 145.899 37.7L147.459 37.58C147.539 37.5667 147.612 37.54 147.679 37.5C147.746 37.46 147.779 37.3867 147.779 37.28V36.74C147.779 36.02 147.552 35.4533 147.099 35.04C146.659 34.6133 146.059 34.4 145.299 34.4C144.712 34.4 144.179 34.5333 143.699 34.8C143.232 35.0667 142.812 35.4667 142.439 36C142.386 36.0667 142.339 36.1133 142.299 36.14C142.272 36.1533 142.219 36.1467 142.139 36.12L141.059 35.76C141.019 35.7333 140.986 35.7 140.959 35.66C140.946 35.62 140.966 35.5467 141.019 35.44C141.419 34.7467 141.979 34.2 142.699 33.8C143.432 33.4 144.326 33.2 145.379 33.2C146.272 33.2 147.012 33.34 147.599 33.62C148.199 33.8867 148.646 34.28 148.939 34.8C149.246 35.3067 149.399 35.9133 149.399 36.62V43.7C149.399 43.82 149.379 43.9 149.339 43.94C149.299 43.98 149.232 44 149.139 44H148.119C148.026 44 147.959 43.9733 147.919 43.92C147.879 43.8533 147.852 43.7733 147.839 43.68L147.819 42.76C147.779 42.5733 147.679 42.56 147.519 42.72ZM147.779 38.92C147.779 38.6933 147.686 38.5867 147.499 38.6L146.179 38.72C145.566 38.7467 145.019 38.8267 144.539 38.96C144.059 39.08 143.652 39.24 143.319 39.44C142.986 39.64 142.732 39.88 142.559 40.16C142.386 40.4267 142.299 40.74 142.299 41.1C142.299 41.6867 142.499 42.1467 142.899 42.48C143.312 42.8 143.866 42.96 144.559 42.96C144.986 42.96 145.392 42.8867 145.779 42.74C146.179 42.58 146.526 42.38 146.819 42.14C147.126 41.8867 147.359 41.6267 147.519 41.36C147.692 41.0933 147.779 40.8333 147.779 40.58V38.92ZM159.916 44C159.823 44 159.749 43.98 159.696 43.94C159.656 43.8867 159.636 43.8133 159.636 43.72V42.88C159.636 42.7733 159.609 42.7133 159.556 42.7C159.516 42.6867 159.456 42.72 159.376 42.8C159.229 42.9333 159.016 43.1133 158.736 43.34C158.469 43.5667 158.129 43.7667 157.716 43.94C157.303 44.1133 156.809 44.2 156.236 44.2C155.396 44.2 154.643 44 153.976 43.6C153.309 43.2 152.776 42.6067 152.376 41.82C151.989 41.02 151.796 40.0333 151.796 38.86C151.796 37.7267 151.989 36.74 152.376 35.9C152.776 35.0467 153.329 34.3867 154.036 33.92C154.756 33.44 155.569 33.2 156.476 33.2C157.129 33.2 157.676 33.3067 158.116 33.52C158.556 33.7333 158.943 33.98 159.276 34.26C159.396 34.3533 159.476 34.3933 159.516 34.38C159.569 34.3533 159.596 34.2667 159.596 34.12V29.42C159.596 29.2467 159.669 29.16 159.816 29.16H161.036C161.183 29.16 161.256 29.2467 161.256 29.42V43.68C161.256 43.8 161.236 43.8867 161.196 43.94C161.156 43.98 161.069 44 160.936 44H159.916ZM159.576 35.74C159.163 35.3267 158.743 35.0067 158.316 34.78C157.889 34.5533 157.409 34.44 156.876 34.44C156.236 34.44 155.656 34.6067 155.136 34.94C154.629 35.26 154.229 35.7467 153.936 36.4C153.656 37.0533 153.516 37.8533 153.516 38.8C153.516 39.7733 153.663 40.5733 153.956 41.2C154.249 41.8133 154.643 42.2667 155.136 42.56C155.629 42.84 156.169 42.98 156.756 42.98C157.303 42.98 157.783 42.8533 158.196 42.6C158.623 42.3467 158.956 42.0333 159.196 41.66C159.449 41.2867 159.576 40.92 159.576 40.56V35.74ZM171.426 34.66C171.319 34.66 171.266 34.7133 171.266 34.82V41.16C171.266 41.7867 171.373 42.2067 171.586 42.42C171.799 42.6333 172.119 42.74 172.546 42.74H173.926C173.993 42.74 174.046 42.76 174.086 42.8C174.126 42.8267 174.146 42.88 174.146 42.96L174.126 43.64C174.126 43.7733 174.046 43.86 173.886 43.9C173.753 43.9267 173.559 43.9467 173.306 43.96C173.066 43.9733 172.826 43.9867 172.586 44C172.359 44 172.166 44 172.006 44C171.166 44 170.553 43.8067 170.166 43.42C169.779 43.02 169.586 42.3933 169.586 41.54V34.86C169.586 34.7267 169.519 34.66 169.386 34.66H167.786C167.639 34.66 167.566 34.5867 167.566 34.44V33.6C167.566 33.4667 167.633 33.4 167.766 33.4H169.466C169.559 33.4 169.606 33.3467 169.606 33.24L169.826 30.06C169.839 29.8867 169.913 29.8 170.046 29.8H171.046C171.206 29.8 171.286 29.8933 171.286 30.08V33.24C171.286 33.3467 171.339 33.4 171.446 33.4H173.966C174.113 33.4 174.186 33.46 174.186 33.58V34.44C174.186 34.5867 174.113 34.66 173.966 34.66H171.426ZM176.64 44C176.467 44 176.38 43.9133 176.38 43.74V29.42C176.38 29.2467 176.454 29.16 176.6 29.16H177.78C177.927 29.16 178 29.24 178 29.4V34.74C178 34.8067 178.014 34.8467 178.04 34.86C178.067 34.8733 178.114 34.8533 178.18 34.8C178.647 34.44 179.074 34.14 179.46 33.9C179.86 33.66 180.247 33.4867 180.62 33.38C181.007 33.26 181.427 33.2 181.88 33.2C182.92 33.2 183.714 33.48 184.26 34.04C184.807 34.5867 185.08 35.32 185.08 36.24V43.68C185.08 43.8933 184.98 44 184.78 44H183.66C183.567 44 183.5 43.98 183.46 43.94C183.42 43.8867 183.4 43.82 183.4 43.74V36.6C183.4 35.9467 183.234 35.44 182.9 35.08C182.567 34.7067 182.04 34.52 181.32 34.52C180.934 34.52 180.567 34.5867 180.22 34.72C179.887 34.84 179.547 35.02 179.2 35.26C178.854 35.4867 178.474 35.78 178.06 36.14V43.7C178.06 43.9 177.954 44 177.74 44H176.64ZM194.14 42.72C193.647 43.2 193.107 43.5667 192.52 43.82C191.947 44.0733 191.3 44.2 190.58 44.2C189.54 44.2 188.72 43.9333 188.12 43.4C187.533 42.8667 187.24 42.1667 187.24 41.3C187.24 40.5933 187.44 39.9867 187.84 39.48C188.24 38.96 188.833 38.5533 189.62 38.26C190.407 37.9533 191.373 37.7667 192.52 37.7L194.08 37.58C194.16 37.5667 194.233 37.54 194.3 37.5C194.367 37.46 194.4 37.3867 194.4 37.28V36.74C194.4 36.02 194.173 35.4533 193.72 35.04C193.28 34.6133 192.68 34.4 191.92 34.4C191.333 34.4 190.8 34.5333 190.32 34.8C189.853 35.0667 189.433 35.4667 189.06 36C189.007 36.0667 188.96 36.1133 188.92 36.14C188.893 36.1533 188.84 36.1467 188.76 36.12L187.68 35.76C187.64 35.7333 187.607 35.7 187.58 35.66C187.567 35.62 187.587 35.5467 187.64 35.44C188.04 34.7467 188.6 34.2 189.32 33.8C190.053 33.4 190.947 33.2 192 33.2C192.893 33.2 193.633 33.34 194.22 33.62C194.82 33.8867 195.267 34.28 195.56 34.8C195.867 35.3067 196.02 35.9133 196.02 36.62V43.7C196.02 43.82 196 43.9 195.96 43.94C195.92 43.98 195.853 44 195.76 44H194.74C194.647 44 194.58 43.9733 194.54 43.92C194.5 43.8533 194.473 43.7733 194.46 43.68L194.44 42.76C194.4 42.5733 194.3 42.56 194.14 42.72ZM194.4 38.92C194.4 38.6933 194.307 38.5867 194.12 38.6L192.8 38.72C192.187 38.7467 191.64 38.8267 191.16 38.96C190.68 39.08 190.273 39.24 189.94 39.44C189.607 39.64 189.353 39.88 189.18 40.16C189.007 40.4267 188.92 40.74 188.92 41.1C188.92 41.6867 189.12 42.1467 189.52 42.48C189.933 42.8 190.487 42.96 191.18 42.96C191.607 42.96 192.013 42.8867 192.4 42.74C192.8 42.58 193.147 42.38 193.44 42.14C193.747 41.8867 193.98 41.6267 194.14 41.36C194.313 41.0933 194.4 40.8333 194.4 40.58V38.92ZM201.543 34.66C201.436 34.66 201.383 34.7133 201.383 34.82V41.16C201.383 41.7867 201.49 42.2067 201.703 42.42C201.916 42.6333 202.236 42.74 202.663 42.74H204.043C204.11 42.74 204.163 42.76 204.203 42.8C204.243 42.8267 204.263 42.88 204.263 42.96L204.243 43.64C204.243 43.7733 204.163 43.86 204.003 43.9C203.87 43.9267 203.676 43.9467 203.423 43.96C203.183 43.9733 202.943 43.9867 202.703 44C202.476 44 202.283 44 202.123 44C201.283 44 200.67 43.8067 200.283 43.42C199.896 43.02 199.703 42.3933 199.703 41.54V34.86C199.703 34.7267 199.636 34.66 199.503 34.66H197.903C197.756 34.66 197.683 34.5867 197.683 34.44V33.6C197.683 33.4667 197.75 33.4 197.883 33.4H199.583C199.676 33.4 199.723 33.3467 199.723 33.24L199.943 30.06C199.956 29.8867 200.03 29.8 200.163 29.8H201.163C201.323 29.8 201.403 29.8933 201.403 30.08V33.24C201.403 33.3467 201.456 33.4 201.563 33.4H204.083C204.23 33.4 204.303 33.46 204.303 33.58V34.44C204.303 34.5867 204.23 34.66 204.083 34.66H201.543ZM211.335 47.3C210.948 47.3 210.648 47.2867 210.435 47.26C210.222 47.2333 210.115 47.16 210.115 47.04V46.26C210.115 46.1667 210.148 46.1 210.215 46.06C210.295 46.02 210.448 46 210.675 46H211.935C212.228 46 212.495 45.9 212.735 45.7C212.975 45.5133 213.175 45.2733 213.335 44.98C213.495 44.6867 213.602 44.3867 213.655 44.08C213.708 43.7867 213.688 43.5267 213.595 43.3L209.775 33.74C209.748 33.6467 209.748 33.5667 209.775 33.5C209.815 33.4333 209.888 33.4 209.995 33.4H211.235C211.315 33.4 211.382 33.42 211.435 33.46C211.488 33.4867 211.528 33.54 211.555 33.62L214.535 41.38C214.588 41.5 214.648 41.56 214.715 41.56C214.782 41.56 214.842 41.48 214.895 41.32L217.835 33.62C217.875 33.54 217.915 33.4867 217.955 33.46C217.995 33.42 218.048 33.4 218.115 33.4H219.055C219.148 33.4 219.215 33.4333 219.255 33.5C219.295 33.5533 219.295 33.62 219.255 33.7L214.855 44.94C214.668 45.42 214.462 45.8133 214.235 46.12C214.008 46.4267 213.748 46.66 213.455 46.82C213.175 46.9933 212.862 47.1133 212.515 47.18C212.168 47.26 211.775 47.3 211.335 47.3ZM225.351 44.2C224.351 44.2 223.464 43.9733 222.691 43.52C221.931 43.0533 221.338 42.4133 220.911 41.6C220.498 40.7733 220.291 39.8267 220.291 38.76C220.291 37.6533 220.504 36.6867 220.931 35.86C221.371 35.02 221.971 34.3667 222.731 33.9C223.491 33.4333 224.371 33.2 225.371 33.2C226.384 33.2 227.264 33.44 228.011 33.92C228.771 34.3867 229.358 35.04 229.771 35.88C230.198 36.7067 230.411 37.66 230.411 38.74C230.411 39.8067 230.198 40.7533 229.771 41.58C229.344 42.3933 228.751 43.0333 227.991 43.5C227.244 43.9667 226.364 44.2 225.351 44.2ZM225.391 42.94C226.084 42.94 226.678 42.7733 227.171 42.44C227.664 42.0933 228.038 41.6067 228.291 40.98C228.558 40.34 228.691 39.58 228.691 38.7C228.691 37.82 228.558 37.0667 228.291 36.44C228.024 35.8 227.644 35.3067 227.151 34.96C226.658 34.6133 226.064 34.44 225.371 34.44C224.691 34.44 224.098 34.6133 223.591 34.96C223.084 35.3067 222.691 35.8 222.411 36.44C222.144 37.0667 222.011 37.82 222.011 38.7C222.011 39.5667 222.144 40.32 222.411 40.96C222.691 41.6 223.084 42.0933 223.591 42.44C224.098 42.7733 224.698 42.94 225.391 42.94ZM236.484 42.88C237.057 42.88 237.604 42.7267 238.124 42.42C238.657 42.1 239.184 41.6733 239.704 41.14V33.7C239.704 33.5 239.81 33.4 240.024 33.4H241.124C241.31 33.4 241.404 33.4933 241.404 33.68L241.364 43.74C241.364 43.9133 241.29 44 241.144 44H239.984C239.837 44 239.764 43.9267 239.764 43.78V42.6C239.764 42.5333 239.75 42.4933 239.724 42.48C239.697 42.4667 239.65 42.4867 239.584 42.54C238.85 43.1667 238.197 43.6 237.624 43.84C237.064 44.08 236.504 44.2 235.944 44.2C235.33 44.2 234.784 44.0733 234.304 43.82C233.824 43.5667 233.444 43.2133 233.164 42.76C232.884 42.2933 232.744 41.7533 232.744 41.14V33.72C232.744 33.5067 232.844 33.4 233.044 33.4H234.164C234.337 33.4 234.424 33.4933 234.424 33.68V40.7C234.424 41.3533 234.604 41.88 234.964 42.28C235.337 42.68 235.844 42.88 236.484 42.88ZM249.023 44C248.93 44 248.856 43.98 248.803 43.94C248.763 43.8867 248.743 43.82 248.743 43.74V33.66C248.743 33.4867 248.816 33.4 248.963 33.4H250.123C250.27 33.4 250.343 33.4733 250.343 33.62V34.92C250.343 35 250.363 35.0467 250.403 35.06C250.443 35.0733 250.496 35.0467 250.563 34.98C250.91 34.5667 251.25 34.2333 251.583 33.98C251.93 33.7133 252.276 33.52 252.623 33.4C252.97 33.2667 253.316 33.2 253.663 33.2C254.13 33.2 254.363 33.2867 254.363 33.46V34.66C254.363 34.7933 254.303 34.8467 254.183 34.82C254.063 34.8067 253.923 34.7933 253.763 34.78C253.616 34.7667 253.456 34.76 253.283 34.76C252.99 34.76 252.676 34.8267 252.343 34.96C252.01 35.08 251.696 35.2533 251.403 35.48C251.123 35.7067 250.89 35.96 250.703 36.24C250.516 36.52 250.423 36.8 250.423 37.08V43.7C250.423 43.9 250.323 44 250.123 44H249.023ZM257.265 39.36C257.265 40.0133 257.419 40.6133 257.725 41.16C258.045 41.6933 258.465 42.12 258.985 42.44C259.519 42.76 260.112 42.92 260.765 42.92C261.432 42.92 262.025 42.7867 262.545 42.52C263.065 42.24 263.512 41.82 263.885 41.26C263.939 41.2067 263.979 41.18 264.005 41.18C264.045 41.1667 264.099 41.1733 264.165 41.2L265.005 41.62C265.125 41.6867 265.139 41.78 265.045 41.9C264.685 42.4333 264.285 42.8733 263.845 43.22C263.419 43.5533 262.939 43.8 262.405 43.96C261.872 44.12 261.272 44.2 260.605 44.2C259.619 44.2 258.745 43.9733 257.985 43.52C257.225 43.0667 256.625 42.4333 256.185 41.62C255.745 40.8067 255.525 39.8667 255.525 38.8C255.525 37.64 255.745 36.6467 256.185 35.82C256.639 34.98 257.245 34.3333 258.005 33.88C258.779 33.4267 259.639 33.2 260.585 33.2C261.559 33.2 262.405 33.4133 263.125 33.84C263.845 34.2667 264.405 34.8867 264.805 35.7C265.205 36.5133 265.405 37.4933 265.405 38.64C265.405 38.7333 265.392 38.8267 265.365 38.92C265.352 39.0133 265.265 39.06 265.105 39.06H257.445C257.392 39.06 257.345 39.0933 257.305 39.16C257.279 39.2133 257.265 39.28 257.265 39.36ZM263.385 37.96C263.532 37.96 263.625 37.9467 263.665 37.92C263.705 37.88 263.725 37.8 263.725 37.68C263.725 37.1067 263.599 36.5733 263.345 36.08C263.105 35.5733 262.752 35.1667 262.285 34.86C261.832 34.5533 261.279 34.4 260.625 34.4C259.905 34.4 259.299 34.5733 258.805 34.92C258.312 35.2533 257.939 35.6933 257.685 36.24C257.432 36.7867 257.305 37.36 257.305 37.96H263.385ZM273.867 42.72C273.373 43.2 272.833 43.5667 272.247 43.82C271.673 44.0733 271.027 44.2 270.307 44.2C269.267 44.2 268.447 43.9333 267.847 43.4C267.26 42.8667 266.967 42.1667 266.967 41.3C266.967 40.5933 267.167 39.9867 267.567 39.48C267.967 38.96 268.56 38.5533 269.347 38.26C270.133 37.9533 271.1 37.7667 272.247 37.7L273.807 37.58C273.887 37.5667 273.96 37.54 274.027 37.5C274.093 37.46 274.127 37.3867 274.127 37.28V36.74C274.127 36.02 273.9 35.4533 273.447 35.04C273.007 34.6133 272.407 34.4 271.647 34.4C271.06 34.4 270.527 34.5333 270.047 34.8C269.58 35.0667 269.16 35.4667 268.787 36C268.733 36.0667 268.687 36.1133 268.647 36.14C268.62 36.1533 268.567 36.1467 268.487 36.12L267.407 35.76C267.367 35.7333 267.333 35.7 267.307 35.66C267.293 35.62 267.313 35.5467 267.367 35.44C267.767 34.7467 268.327 34.2 269.047 33.8C269.78 33.4 270.673 33.2 271.727 33.2C272.62 33.2 273.36 33.34 273.947 33.62C274.547 33.8867 274.993 34.28 275.287 34.8C275.593 35.3067 275.747 35.9133 275.747 36.62V43.7C275.747 43.82 275.727 43.9 275.687 43.94C275.647 43.98 275.58 44 275.487 44H274.467C274.373 44 274.307 43.9733 274.267 43.92C274.227 43.8533 274.2 43.7733 274.187 43.68L274.167 42.76C274.127 42.5733 274.027 42.56 273.867 42.72ZM274.127 38.92C274.127 38.6933 274.033 38.5867 273.847 38.6L272.527 38.72C271.913 38.7467 271.367 38.8267 270.887 38.96C270.407 39.08 270 39.24 269.667 39.44C269.333 39.64 269.08 39.88 268.907 40.16C268.733 40.4267 268.647 40.74 268.647 41.1C268.647 41.6867 268.847 42.1467 269.247 42.48C269.66 42.8 270.213 42.96 270.907 42.96C271.333 42.96 271.74 42.8867 272.127 42.74C272.527 42.58 272.873 42.38 273.167 42.14C273.473 41.8867 273.707 41.6267 273.867 41.36C274.04 41.0933 274.127 40.8333 274.127 40.58V38.92ZM283.124 33.2C283.817 33.2 284.424 33.3133 284.944 33.54C285.477 33.7533 285.93 34.0533 286.304 34.44C286.69 34.8133 287.01 35.2267 287.264 35.68C287.344 35.84 287.31 35.94 287.164 35.98L286.064 36.24C285.97 36.28 285.884 36.24 285.804 36.12C285.537 35.7333 285.27 35.42 285.004 35.18C284.75 34.94 284.477 34.76 284.184 34.64C283.89 34.5067 283.57 34.44 283.224 34.44C282.544 34.44 281.944 34.6133 281.424 34.96C280.917 35.2933 280.524 35.78 280.244 36.42C279.964 37.06 279.824 37.82 279.824 38.7C279.824 39.5933 279.964 40.36 280.244 41C280.537 41.64 280.937 42.1267 281.444 42.46C281.964 42.7933 282.57 42.96 283.264 42.96C283.904 42.96 284.457 42.8 284.924 42.48C285.39 42.16 285.817 41.6933 286.204 41.08C286.244 41.0133 286.277 40.98 286.304 40.98C286.344 40.9667 286.397 40.9733 286.464 41L287.324 41.32C287.417 41.36 287.444 41.4467 287.404 41.58C287.204 41.9267 286.97 42.26 286.704 42.58C286.437 42.9 286.124 43.18 285.764 43.42C285.417 43.66 285.024 43.8533 284.584 44C284.144 44.1333 283.657 44.2 283.124 44.2C282.137 44.2 281.264 43.9733 280.504 43.52C279.757 43.0533 279.17 42.4133 278.744 41.6C278.317 40.7733 278.104 39.82 278.104 38.74C278.104 37.6467 278.317 36.6867 278.744 35.86C279.184 35.0333 279.777 34.3867 280.524 33.92C281.284 33.44 282.15 33.2 283.124 33.2ZM289.843 44C289.67 44 289.583 43.9133 289.583 43.74V29.42C289.583 29.2467 289.657 29.16 289.803 29.16H290.983C291.13 29.16 291.203 29.24 291.203 29.4V34.74C291.203 34.8067 291.217 34.8467 291.243 34.86C291.27 34.8733 291.317 34.8533 291.383 34.8C291.85 34.44 292.277 34.14 292.663 33.9C293.063 33.66 293.45 33.4867 293.823 33.38C294.21 33.26 294.63 33.2 295.083 33.2C296.123 33.2 296.917 33.48 297.463 34.04C298.01 34.5867 298.283 35.32 298.283 36.24V43.68C298.283 43.8933 298.183 44 297.983 44H296.863C296.77 44 296.703 43.98 296.663 43.94C296.623 43.8867 296.603 43.82 296.603 43.74V36.6C296.603 35.9467 296.437 35.44 296.103 35.08C295.77 34.7067 295.243 34.52 294.523 34.52C294.137 34.52 293.77 34.5867 293.423 34.72C293.09 34.84 292.75 35.02 292.403 35.26C292.057 35.4867 291.677 35.78 291.263 36.14V43.7C291.263 43.9 291.157 44 290.943 44H289.843ZM309.96 44.2C308.96 44.2 308.074 43.9733 307.3 43.52C306.54 43.0533 305.947 42.4133 305.52 41.6C305.107 40.7733 304.9 39.8267 304.9 38.76C304.9 37.6533 305.114 36.6867 305.54 35.86C305.98 35.02 306.58 34.3667 307.34 33.9C308.1 33.4333 308.98 33.2 309.98 33.2C310.994 33.2 311.874 33.44 312.62 33.92C313.38 34.3867 313.967 35.04 314.38 35.88C314.807 36.7067 315.02 37.66 315.02 38.74C315.02 39.8067 314.807 40.7533 314.38 41.58C313.954 42.3933 313.36 43.0333 312.6 43.5C311.854 43.9667 310.974 44.2 309.96 44.2ZM310 42.94C310.694 42.94 311.287 42.7733 311.78 42.44C312.274 42.0933 312.647 41.6067 312.9 40.98C313.167 40.34 313.3 39.58 313.3 38.7C313.3 37.82 313.167 37.0667 312.9 36.44C312.634 35.8 312.254 35.3067 311.76 34.96C311.267 34.6133 310.674 34.44 309.98 34.44C309.3 34.44 308.707 34.6133 308.2 34.96C307.694 35.3067 307.3 35.8 307.02 36.44C306.754 37.0667 306.62 37.82 306.62 38.7C306.62 39.5667 306.754 40.32 307.02 40.96C307.3 41.6 307.694 42.0933 308.2 42.44C308.707 42.7733 309.307 42.94 310 42.94ZM321.093 42.88C321.666 42.88 322.213 42.7267 322.733 42.42C323.266 42.1 323.793 41.6733 324.313 41.14V33.7C324.313 33.5 324.42 33.4 324.633 33.4H325.733C325.92 33.4 326.013 33.4933 326.013 33.68L325.973 43.74C325.973 43.9133 325.9 44 325.753 44H324.593C324.446 44 324.373 43.9267 324.373 43.78V42.6C324.373 42.5333 324.36 42.4933 324.333 42.48C324.306 42.4667 324.26 42.4867 324.193 42.54C323.46 43.1667 322.806 43.6 322.233 43.84C321.673 44.08 321.113 44.2 320.553 44.2C319.94 44.2 319.393 44.0733 318.913 43.82C318.433 43.5667 318.053 43.2133 317.773 42.76C317.493 42.2933 317.353 41.7533 317.353 41.14V33.72C317.353 33.5067 317.453 33.4 317.653 33.4H318.773C318.946 33.4 319.033 33.4933 319.033 33.68V40.7C319.033 41.3533 319.213 41.88 319.573 42.28C319.946 42.68 320.453 42.88 321.093 42.88ZM331.875 34.66C331.768 34.66 331.715 34.7133 331.715 34.82V41.16C331.715 41.7867 331.822 42.2067 332.035 42.42C332.248 42.6333 332.568 42.74 332.995 42.74H334.375C334.442 42.74 334.495 42.76 334.535 42.8C334.575 42.8267 334.595 42.88 334.595 42.96L334.575 43.64C334.575 43.7733 334.495 43.86 334.335 43.9C334.202 43.9267 334.008 43.9467 333.755 43.96C333.515 43.9733 333.275 43.9867 333.035 44C332.808 44 332.615 44 332.455 44C331.615 44 331.002 43.8067 330.615 43.42C330.228 43.02 330.035 42.3933 330.035 41.54V34.86C330.035 34.7267 329.968 34.66 329.835 34.66H328.235C328.088 34.66 328.015 34.5867 328.015 34.44V33.6C328.015 33.4667 328.082 33.4 328.215 33.4H329.915C330.008 33.4 330.055 33.3467 330.055 33.24L330.275 30.06C330.288 29.8867 330.362 29.8 330.495 29.8H331.495C331.655 29.8 331.735 29.8933 331.735 30.08V33.24C331.735 33.3467 331.788 33.4 331.895 33.4H334.415C334.562 33.4 334.635 33.46 334.635 33.58V34.44C334.635 34.5867 334.562 34.66 334.415 34.66H331.875ZM338.37 43.68C338.37 43.8933 338.25 44 338.01 44H336.61C336.41 44 336.31 43.9067 336.31 43.72V42C336.31 41.8267 336.383 41.74 336.53 41.74H338.17C338.303 41.74 338.37 41.82 338.37 41.98V43.68ZM345.667 29.44C345.667 29.2533 345.747 29.16 345.907 29.16H347.347C347.507 29.16 347.587 29.2467 347.587 29.42V42.32C347.587 42.4533 347.653 42.52 347.787 42.52H354.707C354.867 42.52 354.947 42.5867 354.947 42.72V43.78C354.947 43.8467 354.927 43.9 354.887 43.94C354.847 43.98 354.787 44 354.707 44H345.947C345.84 44 345.767 43.98 345.727 43.94C345.687 43.8867 345.667 43.8133 345.667 43.72V29.44ZM357.871 39.36C357.871 40.0133 358.024 40.6133 358.331 41.16C358.651 41.6933 359.071 42.12 359.591 42.44C360.124 42.76 360.718 42.92 361.371 42.92C362.038 42.92 362.631 42.7867 363.151 42.52C363.671 42.24 364.118 41.82 364.491 41.26C364.544 41.2067 364.584 41.18 364.611 41.18C364.651 41.1667 364.704 41.1733 364.771 41.2L365.611 41.62C365.731 41.6867 365.744 41.78 365.651 41.9C365.291 42.4333 364.891 42.8733 364.451 43.22C364.024 43.5533 363.544 43.8 363.011 43.96C362.478 44.12 361.878 44.2 361.211 44.2C360.224 44.2 359.351 43.9733 358.591 43.52C357.831 43.0667 357.231 42.4333 356.791 41.62C356.351 40.8067 356.131 39.8667 356.131 38.8C356.131 37.64 356.351 36.6467 356.791 35.82C357.244 34.98 357.851 34.3333 358.611 33.88C359.384 33.4267 360.244 33.2 361.191 33.2C362.164 33.2 363.011 33.4133 363.731 33.84C364.451 34.2667 365.011 34.8867 365.411 35.7C365.811 36.5133 366.011 37.4933 366.011 38.64C366.011 38.7333 365.998 38.8267 365.971 38.92C365.958 39.0133 365.871 39.06 365.711 39.06H358.051C357.998 39.06 357.951 39.0933 357.911 39.16C357.884 39.2133 357.871 39.28 357.871 39.36ZM363.991 37.96C364.138 37.96 364.231 37.9467 364.271 37.92C364.311 37.88 364.331 37.8 364.331 37.68C364.331 37.1067 364.204 36.5733 363.951 36.08C363.711 35.5733 363.358 35.1667 362.891 34.86C362.438 34.5533 361.884 34.4 361.231 34.4C360.511 34.4 359.904 34.5733 359.411 34.92C358.918 35.2533 358.544 35.6933 358.291 36.24C358.038 36.7867 357.911 37.36 357.911 37.96H363.991ZM370.938 34.66C370.831 34.66 370.778 34.7133 370.778 34.82V41.16C370.778 41.7867 370.884 42.2067 371.098 42.42C371.311 42.6333 371.631 42.74 372.058 42.74H373.438C373.504 42.74 373.558 42.76 373.598 42.8C373.638 42.8267 373.658 42.88 373.658 42.96L373.638 43.64C373.638 43.7733 373.558 43.86 373.398 43.9C373.264 43.9267 373.071 43.9467 372.818 43.96C372.578 43.9733 372.338 43.9867 372.098 44C371.871 44 371.678 44 371.518 44C370.678 44 370.064 43.8067 369.678 43.42C369.291 43.02 369.098 42.3933 369.098 41.54V34.86C369.098 34.7267 369.031 34.66 368.898 34.66H367.298C367.151 34.66 367.078 34.5867 367.078 34.44V33.6C367.078 33.4667 367.144 33.4 367.278 33.4H368.978C369.071 33.4 369.118 33.3467 369.118 33.24L369.338 30.06C369.351 29.8867 369.424 29.8 369.558 29.8H370.558C370.718 29.8 370.798 29.8933 370.798 30.08V33.24C370.798 33.3467 370.851 33.4 370.958 33.4H373.478C373.624 33.4 373.698 33.46 373.698 33.58V34.44C373.698 34.5867 373.624 34.66 373.478 34.66H370.938ZM375.999 33.82C375.932 33.82 375.886 33.7933 375.859 33.74C375.832 33.6867 375.826 33.64 375.839 33.6L376.719 31.7C376.772 31.58 376.792 31.4933 376.779 31.44C376.766 31.3733 376.712 31.3333 376.619 31.32H376.279C376.199 31.3067 376.139 31.2867 376.099 31.26C376.059 31.22 376.039 31.16 376.039 31.08V29.36C376.039 29.2267 376.099 29.16 376.219 29.16H378.099C378.219 29.16 378.279 29.22 378.279 29.34V30.94C378.279 30.9933 378.259 31.0467 378.219 31.1L376.719 33.64C376.679 33.7067 376.626 33.7533 376.559 33.78C376.492 33.8067 376.412 33.82 376.319 33.82H375.999ZM385.963 35.74C385.696 35.34 385.323 35.0133 384.843 34.76C384.363 34.5067 383.789 34.38 383.123 34.38C382.403 34.38 381.803 34.5333 381.323 34.84C380.856 35.1467 380.623 35.56 380.623 36.08C380.623 36.36 380.729 36.6267 380.943 36.88C381.156 37.12 381.589 37.3467 382.243 37.56L384.783 38.32C385.703 38.5733 386.363 38.94 386.763 39.42C387.176 39.9 387.383 40.4533 387.383 41.08C387.383 41.7067 387.196 42.2533 386.823 42.72C386.449 43.1867 385.936 43.5533 385.283 43.82C384.629 44.0733 383.889 44.2 383.062 44.2C382.009 44.2 381.089 43.9933 380.303 43.58C379.516 43.1533 378.956 42.6267 378.623 42C378.583 41.9333 378.563 41.8733 378.563 41.82C378.563 41.7667 378.596 41.72 378.663 41.68L379.443 41.24C379.509 41.2 379.569 41.1867 379.623 41.2C379.676 41.2 379.716 41.22 379.743 41.26C379.969 41.6067 380.229 41.9067 380.523 42.16C380.829 42.4133 381.189 42.6133 381.603 42.76C382.029 42.9067 382.523 42.98 383.083 42.98C383.589 42.9667 384.049 42.8933 384.463 42.76C384.876 42.6267 385.203 42.4333 385.443 42.18C385.683 41.9133 385.803 41.6067 385.803 41.26C385.803 40.9 385.656 40.5933 385.363 40.34C385.069 40.0733 384.563 39.84 383.843 39.64L381.783 39.06C380.783 38.7933 380.076 38.4333 379.663 37.98C379.263 37.5267 379.056 36.9933 379.043 36.38C379.043 35.74 379.216 35.1867 379.563 34.72C379.909 34.24 380.389 33.8667 381.002 33.6C381.629 33.3333 382.343 33.2 383.143 33.2C384.036 33.2 384.829 33.3733 385.523 33.72C386.229 34.0533 386.763 34.5 387.123 35.06C387.163 35.1133 387.183 35.1667 387.183 35.22C387.183 35.26 387.156 35.3 387.103 35.34L386.263 35.8C386.209 35.8267 386.156 35.84 386.103 35.84C386.063 35.8267 386.016 35.7933 385.963 35.74ZM101.9 59.74C101.633 59.34 101.26 59.0133 100.78 58.76C100.3 58.5067 99.7267 58.38 99.06 58.38C98.34 58.38 97.74 58.5333 97.26 58.84C96.7933 59.1467 96.56 59.56 96.56 60.08C96.56 60.36 96.6667 60.6267 96.88 60.88C97.0933 61.12 97.5267 61.3467 98.18 61.56L100.72 62.32C101.64 62.5733 102.3 62.94 102.7 63.42C103.113 63.9 103.32 64.4533 103.32 65.08C103.32 65.7067 103.133 66.2533 102.76 66.72C102.387 67.1867 101.873 67.5533 101.22 67.82C100.567 68.0733 99.8267 68.2 99 68.2C97.9467 68.2 97.0267 67.9933 96.24 67.58C95.4533 67.1533 94.8933 66.6267 94.56 66C94.52 65.9333 94.5 65.8733 94.5 65.82C94.5 65.7667 94.5333 65.72 94.6 65.68L95.38 65.24C95.4467 65.2 95.5067 65.1867 95.56 65.2C95.6133 65.2 95.6533 65.22 95.68 65.26C95.9067 65.6067 96.1667 65.9067 96.46 66.16C96.7667 66.4133 97.1267 66.6133 97.54 66.76C97.9667 66.9067 98.46 66.98 99.02 66.98C99.5267 66.9667 99.9867 66.8933 100.4 66.76C100.813 66.6267 101.14 66.4333 101.38 66.18C101.62 65.9133 101.74 65.6067 101.74 65.26C101.74 64.9 101.593 64.5933 101.3 64.34C101.007 64.0733 100.5 63.84 99.78 63.64L97.72 63.06C96.72 62.7933 96.0133 62.4333 95.6 61.98C95.2 61.5267 94.9933 60.9933 94.98 60.38C94.98 59.74 95.1533 59.1867 95.5 58.72C95.8467 58.24 96.3267 57.8667 96.94 57.6C97.5667 57.3333 98.28 57.2 99.08 57.2C99.9733 57.2 100.767 57.3733 101.46 57.72C102.167 58.0533 102.7 58.5 103.06 59.06C103.1 59.1133 103.12 59.1667 103.12 59.22C103.12 59.26 103.093 59.3 103.04 59.34L102.2 59.8C102.147 59.8267 102.093 59.84 102.04 59.84C102 59.8267 101.953 59.7933 101.9 59.74ZM110.174 57.2C110.868 57.2 111.474 57.3133 111.994 57.54C112.528 57.7533 112.981 58.0533 113.354 58.44C113.741 58.8133 114.061 59.2267 114.314 59.68C114.394 59.84 114.361 59.94 114.214 59.98L113.114 60.24C113.021 60.28 112.934 60.24 112.854 60.12C112.588 59.7333 112.321 59.42 112.054 59.18C111.801 58.94 111.528 58.76 111.234 58.64C110.941 58.5067 110.621 58.44 110.274 58.44C109.594 58.44 108.994 58.6133 108.474 58.96C107.968 59.2933 107.574 59.78 107.294 60.42C107.014 61.06 106.874 61.82 106.874 62.7C106.874 63.5933 107.014 64.36 107.294 65C107.588 65.64 107.988 66.1267 108.494 66.46C109.014 66.7933 109.621 66.96 110.314 66.96C110.954 66.96 111.508 66.8 111.974 66.48C112.441 66.16 112.868 65.6933 113.254 65.08C113.294 65.0133 113.328 64.98 113.354 64.98C113.394 64.9667 113.448 64.9733 113.514 65L114.374 65.32C114.468 65.36 114.494 65.4467 114.454 65.58C114.254 65.9267 114.021 66.26 113.754 66.58C113.488 66.9 113.174 67.18 112.814 67.42C112.468 67.66 112.074 67.8533 111.634 68C111.194 68.1333 110.708 68.2 110.174 68.2C109.188 68.2 108.314 67.9733 107.554 67.52C106.808 67.0533 106.221 66.4133 105.794 65.6C105.368 64.7733 105.154 63.82 105.154 62.74C105.154 61.6467 105.368 60.6867 105.794 59.86C106.234 59.0333 106.828 58.3867 107.574 57.92C108.334 57.44 109.201 57.2 110.174 57.2ZM116.894 68C116.721 68 116.634 67.9133 116.634 67.74V53.42C116.634 53.2467 116.708 53.16 116.854 53.16H118.034C118.181 53.16 118.254 53.24 118.254 53.4V58.74C118.254 58.8067 118.268 58.8467 118.294 58.86C118.321 58.8733 118.368 58.8533 118.434 58.8C118.901 58.44 119.328 58.14 119.714 57.9C120.114 57.66 120.501 57.4867 120.874 57.38C121.261 57.26 121.681 57.2 122.134 57.2C123.174 57.2 123.968 57.48 124.514 58.04C125.061 58.5867 125.334 59.32 125.334 60.24V67.68C125.334 67.8933 125.234 68 125.034 68H123.914C123.821 68 123.754 67.98 123.714 67.94C123.674 67.8867 123.654 67.82 123.654 67.74V60.6C123.654 59.9467 123.488 59.44 123.154 59.08C122.821 58.7067 122.294 58.52 121.574 58.52C121.188 58.52 120.821 58.5867 120.474 58.72C120.141 58.84 119.801 59.02 119.454 59.26C119.108 59.4867 118.728 59.78 118.314 60.14V67.7C118.314 67.9 118.208 68 117.994 68H116.894ZM129.414 63.36C129.414 64.0133 129.567 64.6133 129.874 65.16C130.194 65.6933 130.614 66.12 131.134 66.44C131.667 66.76 132.261 66.92 132.914 66.92C133.581 66.92 134.174 66.7867 134.694 66.52C135.214 66.24 135.661 65.82 136.034 65.26C136.087 65.2067 136.127 65.18 136.154 65.18C136.194 65.1667 136.247 65.1733 136.314 65.2L137.154 65.62C137.274 65.6867 137.287 65.78 137.194 65.9C136.834 66.4333 136.434 66.8733 135.994 67.22C135.567 67.5533 135.087 67.8 134.554 67.96C134.021 68.12 133.421 68.2 132.754 68.2C131.767 68.2 130.894 67.9733 130.134 67.52C129.374 67.0667 128.774 66.4333 128.334 65.62C127.894 64.8067 127.674 63.8667 127.674 62.8C127.674 61.64 127.894 60.6467 128.334 59.82C128.787 58.98 129.394 58.3333 130.154 57.88C130.927 57.4267 131.787 57.2 132.734 57.2C133.707 57.2 134.554 57.4133 135.274 57.84C135.994 58.2667 136.554 58.8867 136.954 59.7C137.354 60.5133 137.554 61.4933 137.554 62.64C137.554 62.7333 137.541 62.8267 137.514 62.92C137.501 63.0133 137.414 63.06 137.254 63.06H129.594C129.541 63.06 129.494 63.0933 129.454 63.16C129.427 63.2133 129.414 63.28 129.414 63.36ZM135.534 61.96C135.681 61.96 135.774 61.9467 135.814 61.92C135.854 61.88 135.874 61.8 135.874 61.68C135.874 61.1067 135.747 60.5733 135.494 60.08C135.254 59.5733 134.901 59.1667 134.434 58.86C133.981 58.5533 133.427 58.4 132.774 58.4C132.054 58.4 131.447 58.5733 130.954 58.92C130.461 59.2533 130.087 59.6933 129.834 60.24C129.581 60.7867 129.454 61.36 129.454 61.96H135.534ZM147.455 68C147.362 68 147.288 67.98 147.235 67.94C147.195 67.8867 147.175 67.8133 147.175 67.72V66.88C147.175 66.7733 147.148 66.7133 147.095 66.7C147.055 66.6867 146.995 66.72 146.915 66.8C146.768 66.9333 146.555 67.1133 146.275 67.34C146.008 67.5667 145.668 67.7667 145.255 67.94C144.842 68.1133 144.348 68.2 143.775 68.2C142.935 68.2 142.182 68 141.515 67.6C140.848 67.2 140.315 66.6067 139.915 65.82C139.528 65.02 139.335 64.0333 139.335 62.86C139.335 61.7267 139.528 60.74 139.915 59.9C140.315 59.0467 140.868 58.3867 141.575 57.92C142.295 57.44 143.108 57.2 144.015 57.2C144.668 57.2 145.215 57.3067 145.655 57.52C146.095 57.7333 146.482 57.98 146.815 58.26C146.935 58.3533 147.015 58.3933 147.055 58.38C147.108 58.3533 147.135 58.2667 147.135 58.12V53.42C147.135 53.2467 147.208 53.16 147.355 53.16H148.575C148.722 53.16 148.795 53.2467 148.795 53.42V67.68C148.795 67.8 148.775 67.8867 148.735 67.94C148.695 67.98 148.608 68 148.475 68H147.455ZM147.115 59.74C146.702 59.3267 146.282 59.0067 145.855 58.78C145.428 58.5533 144.948 58.44 144.415 58.44C143.775 58.44 143.195 58.6067 142.675 58.94C142.168 59.26 141.768 59.7467 141.475 60.4C141.195 61.0533 141.055 61.8533 141.055 62.8C141.055 63.7733 141.202 64.5733 141.495 65.2C141.788 65.8133 142.182 66.2667 142.675 66.56C143.168 66.84 143.708 66.98 144.295 66.98C144.842 66.98 145.322 66.8533 145.735 66.6C146.162 66.3467 146.495 66.0333 146.735 65.66C146.988 65.2867 147.115 64.92 147.115 64.56V59.74ZM155.488 66.88C156.061 66.88 156.608 66.7267 157.128 66.42C157.661 66.1 158.188 65.6733 158.708 65.14V57.7C158.708 57.5 158.814 57.4 159.028 57.4H160.128C160.314 57.4 160.408 57.4933 160.408 57.68L160.368 67.74C160.368 67.9133 160.294 68 160.148 68H158.988C158.841 68 158.768 67.9267 158.768 67.78V66.6C158.768 66.5333 158.754 66.4933 158.728 66.48C158.701 66.4667 158.654 66.4867 158.588 66.54C157.854 67.1667 157.201 67.6 156.628 67.84C156.068 68.08 155.508 68.2 154.948 68.2C154.334 68.2 153.788 68.0733 153.308 67.82C152.828 67.5667 152.448 67.2133 152.168 66.76C151.888 66.2933 151.748 65.7533 151.748 65.14V57.72C151.748 57.5067 151.848 57.4 152.048 57.4H153.168C153.341 57.4 153.428 57.4933 153.428 57.68V64.7C153.428 65.3533 153.608 65.88 153.968 66.28C154.341 66.68 154.848 66.88 155.488 66.88ZM165.17 67.66C165.17 67.7933 165.143 67.8867 165.09 67.94C165.036 67.98 164.943 68 164.81 68H163.77C163.57 68 163.47 67.9067 163.47 67.72L163.49 53.44C163.49 53.2533 163.57 53.16 163.73 53.16H164.93C165.09 53.16 165.17 53.2467 165.17 53.42V67.66ZM169.375 63.36C169.375 64.0133 169.528 64.6133 169.835 65.16C170.155 65.6933 170.575 66.12 171.095 66.44C171.628 66.76 172.222 66.92 172.875 66.92C173.542 66.92 174.135 66.7867 174.655 66.52C175.175 66.24 175.622 65.82 175.995 65.26C176.048 65.2067 176.088 65.18 176.115 65.18C176.155 65.1667 176.208 65.1733 176.275 65.2L177.115 65.62C177.235 65.6867 177.248 65.78 177.155 65.9C176.795 66.4333 176.395 66.8733 175.955 67.22C175.528 67.5533 175.048 67.8 174.515 67.96C173.982 68.12 173.382 68.2 172.715 68.2C171.728 68.2 170.855 67.9733 170.095 67.52C169.335 67.0667 168.735 66.4333 168.295 65.62C167.855 64.8067 167.635 63.8667 167.635 62.8C167.635 61.64 167.855 60.6467 168.295 59.82C168.748 58.98 169.355 58.3333 170.115 57.88C170.888 57.4267 171.748 57.2 172.695 57.2C173.668 57.2 174.515 57.4133 175.235 57.84C175.955 58.2667 176.515 58.8867 176.915 59.7C177.315 60.5133 177.515 61.4933 177.515 62.64C177.515 62.7333 177.502 62.8267 177.475 62.92C177.462 63.0133 177.375 63.06 177.215 63.06H169.555C169.502 63.06 169.455 63.0933 169.415 63.16C169.388 63.2133 169.375 63.28 169.375 63.36ZM175.495 61.96C175.642 61.96 175.735 61.9467 175.775 61.92C175.815 61.88 175.835 61.8 175.835 61.68C175.835 61.1067 175.708 60.5733 175.455 60.08C175.215 59.5733 174.862 59.1667 174.395 58.86C173.942 58.5533 173.388 58.4 172.735 58.4C172.015 58.4 171.408 58.5733 170.915 58.92C170.422 59.2533 170.048 59.6933 169.795 60.24C169.542 60.7867 169.415 61.36 169.415 61.96H175.495ZM190.253 66.72C189.76 67.2 189.22 67.5667 188.633 67.82C188.06 68.0733 187.413 68.2 186.693 68.2C185.653 68.2 184.833 67.9333 184.233 67.4C183.647 66.8667 183.353 66.1667 183.353 65.3C183.353 64.5933 183.553 63.9867 183.953 63.48C184.353 62.96 184.947 62.5533 185.733 62.26C186.52 61.9533 187.487 61.7667 188.633 61.7L190.193 61.58C190.273 61.5667 190.347 61.54 190.413 61.5C190.48 61.46 190.513 61.3867 190.513 61.28V60.74C190.513 60.02 190.287 59.4533 189.833 59.04C189.393 58.6133 188.793 58.4 188.033 58.4C187.447 58.4 186.913 58.5333 186.433 58.8C185.967 59.0667 185.547 59.4667 185.173 60C185.12 60.0667 185.073 60.1133 185.033 60.14C185.007 60.1533 184.953 60.1467 184.873 60.12L183.793 59.76C183.753 59.7333 183.72 59.7 183.693 59.66C183.68 59.62 183.7 59.5467 183.753 59.44C184.153 58.7467 184.713 58.2 185.433 57.8C186.167 57.4 187.06 57.2 188.113 57.2C189.007 57.2 189.747 57.34 190.333 57.62C190.933 57.8867 191.38 58.28 191.673 58.8C191.98 59.3067 192.133 59.9133 192.133 60.62V67.7C192.133 67.82 192.113 67.9 192.073 67.94C192.033 67.98 191.967 68 191.873 68H190.853C190.76 68 190.693 67.9733 190.653 67.92C190.613 67.8533 190.587 67.7733 190.573 67.68L190.553 66.76C190.513 66.5733 190.413 66.56 190.253 66.72ZM190.513 62.92C190.513 62.6933 190.42 62.5867 190.233 62.6L188.913 62.72C188.3 62.7467 187.753 62.8267 187.273 62.96C186.793 63.08 186.387 63.24 186.053 63.44C185.72 63.64 185.467 63.88 185.293 64.16C185.12 64.4267 185.033 64.74 185.033 65.1C185.033 65.6867 185.233 66.1467 185.633 66.48C186.047 66.8 186.6 66.96 187.293 66.96C187.72 66.96 188.127 66.8867 188.513 66.74C188.913 66.58 189.26 66.38 189.553 66.14C189.86 65.8867 190.093 65.6267 190.253 65.36C190.427 65.0933 190.513 64.8333 190.513 64.58V62.92ZM195.39 68C195.204 68 195.11 67.9133 195.11 67.74V57.66C195.11 57.4867 195.184 57.4 195.33 57.4H196.53C196.677 57.4 196.75 57.4733 196.75 57.62V58.78C196.75 58.8467 196.764 58.8867 196.79 58.9C196.817 58.9133 196.864 58.8933 196.93 58.84C197.37 58.4933 197.777 58.2 198.15 57.96C198.537 57.7067 198.93 57.52 199.33 57.4C199.73 57.2667 200.157 57.2 200.61 57.2C201.65 57.2 202.444 57.48 202.99 58.04C203.55 58.6 203.83 59.3267 203.83 60.22V67.68C203.83 67.8933 203.73 68 203.53 68H202.41C202.317 68 202.25 67.98 202.21 67.94C202.17 67.8867 202.15 67.82 202.15 67.74V60.6C202.15 59.9467 201.984 59.44 201.65 59.08C201.317 58.7067 200.79 58.52 200.07 58.52C199.684 58.52 199.317 58.5867 198.97 58.72C198.637 58.84 198.297 59.02 197.95 59.26C197.604 59.4867 197.217 59.78 196.79 60.14V67.7C196.79 67.9 196.69 68 196.49 68H195.39ZM212.747 67.66C212.747 67.7933 212.721 67.8867 212.667 67.94C212.627 67.98 212.534 68 212.387 68H211.367C211.247 68 211.167 67.98 211.127 67.94C211.087 67.9 211.067 67.8267 211.067 67.72V57.68C211.067 57.4933 211.147 57.4 211.307 57.4H212.527C212.674 57.4 212.747 57.4867 212.747 57.66V67.66ZM212.827 55.12C212.827 55.3733 212.707 55.5 212.467 55.5H211.307C211.187 55.5 211.107 55.4733 211.067 55.42C211.027 55.3533 211.007 55.2667 211.007 55.16V53.48C211.007 53.2667 211.101 53.16 211.287 53.16H212.547C212.734 53.16 212.827 53.26 212.827 53.46V55.12ZM216.133 68C215.946 68 215.853 67.9133 215.853 67.74V57.66C215.853 57.4867 215.926 57.4 216.073 57.4H217.273C217.419 57.4 217.493 57.4733 217.493 57.62V58.78C217.493 58.8467 217.506 58.8867 217.533 58.9C217.559 58.9133 217.606 58.8933 217.673 58.84C218.113 58.4933 218.519 58.2 218.893 57.96C219.279 57.7067 219.673 57.52 220.073 57.4C220.473 57.2667 220.899 57.2 221.353 57.2C222.393 57.2 223.186 57.48 223.733 58.04C224.293 58.6 224.573 59.3267 224.573 60.22V67.68C224.573 67.8933 224.473 68 224.273 68H223.153C223.059 68 222.993 67.98 222.953 67.94C222.913 67.8867 222.893 67.82 222.893 67.74V60.6C222.893 59.9467 222.726 59.44 222.393 59.08C222.059 58.7067 221.533 58.52 220.813 58.52C220.426 58.52 220.059 58.5867 219.713 58.72C219.379 58.84 219.039 59.02 218.693 59.26C218.346 59.4867 217.959 59.78 217.533 60.14V67.7C217.533 67.9 217.433 68 217.233 68H216.133ZM230.078 58.66C229.972 58.66 229.918 58.7133 229.918 58.82V65.16C229.918 65.7867 230.025 66.2067 230.238 66.42C230.452 66.6333 230.772 66.74 231.198 66.74H232.578C232.645 66.74 232.698 66.76 232.738 66.8C232.778 66.8267 232.798 66.88 232.798 66.96L232.778 67.64C232.778 67.7733 232.698 67.86 232.538 67.9C232.405 67.9267 232.212 67.9467 231.958 67.96C231.718 67.9733 231.478 67.9867 231.238 68C231.012 68 230.818 68 230.658 68C229.818 68 229.205 67.8067 228.818 67.42C228.432 67.02 228.238 66.3933 228.238 65.54V58.86C228.238 58.7267 228.172 58.66 228.038 58.66H226.438C226.292 58.66 226.218 58.5867 226.218 58.44V57.6C226.218 57.4667 226.285 57.4 226.418 57.4H228.118C228.212 57.4 228.258 57.3467 228.258 57.24L228.478 54.06C228.492 53.8867 228.565 53.8 228.698 53.8H229.698C229.858 53.8 229.938 53.8933 229.938 54.08V57.24C229.938 57.3467 229.992 57.4 230.098 57.4H232.618C232.765 57.4 232.838 57.46 232.838 57.58V58.44C232.838 58.5867 232.765 58.66 232.618 58.66H230.078ZM235.879 63.36C235.879 64.0133 236.032 64.6133 236.339 65.16C236.659 65.6933 237.079 66.12 237.599 66.44C238.132 66.76 238.725 66.92 239.379 66.92C240.045 66.92 240.639 66.7867 241.159 66.52C241.679 66.24 242.125 65.82 242.499 65.26C242.552 65.2067 242.592 65.18 242.619 65.18C242.659 65.1667 242.712 65.1733 242.779 65.2L243.619 65.62C243.739 65.6867 243.752 65.78 243.659 65.9C243.299 66.4333 242.899 66.8733 242.459 67.22C242.032 67.5533 241.552 67.8 241.019 67.96C240.485 68.12 239.885 68.2 239.219 68.2C238.232 68.2 237.359 67.9733 236.599 67.52C235.839 67.0667 235.239 66.4333 234.799 65.62C234.359 64.8067 234.139 63.8667 234.139 62.8C234.139 61.64 234.359 60.6467 234.799 59.82C235.252 58.98 235.859 58.3333 236.619 57.88C237.392 57.4267 238.252 57.2 239.199 57.2C240.172 57.2 241.019 57.4133 241.739 57.84C242.459 58.2667 243.019 58.8867 243.419 59.7C243.819 60.5133 244.019 61.4933 244.019 62.64C244.019 62.7333 244.005 62.8267 243.979 62.92C243.965 63.0133 243.879 63.06 243.719 63.06H236.059C236.005 63.06 235.959 63.0933 235.919 63.16C235.892 63.2133 235.879 63.28 235.879 63.36ZM241.999 61.96C242.145 61.96 242.239 61.9467 242.279 61.92C242.319 61.88 242.339 61.8 242.339 61.68C242.339 61.1067 242.212 60.5733 241.959 60.08C241.719 59.5733 241.365 59.1667 240.899 58.86C240.445 58.5533 239.892 58.4 239.239 58.4C238.519 58.4 237.912 58.5733 237.419 58.92C236.925 59.2533 236.552 59.6933 236.299 60.24C236.045 60.7867 235.919 61.36 235.919 61.96H241.999ZM246.66 68C246.567 68 246.493 67.98 246.44 67.94C246.4 67.8867 246.38 67.82 246.38 67.74V57.66C246.38 57.4867 246.453 57.4 246.6 57.4H247.76C247.907 57.4 247.98 57.4733 247.98 57.62V58.92C247.98 59 248 59.0467 248.04 59.06C248.08 59.0733 248.133 59.0467 248.2 58.98C248.547 58.5667 248.887 58.2333 249.22 57.98C249.567 57.7133 249.913 57.52 250.26 57.4C250.607 57.2667 250.953 57.2 251.3 57.2C251.767 57.2 252 57.2867 252 57.46V58.66C252 58.7933 251.94 58.8467 251.82 58.82C251.7 58.8067 251.56 58.7933 251.4 58.78C251.253 58.7667 251.093 58.76 250.92 58.76C250.627 58.76 250.313 58.8267 249.98 58.96C249.647 59.08 249.333 59.2533 249.04 59.48C248.76 59.7067 248.527 59.96 248.34 60.24C248.153 60.52 248.06 60.8 248.06 61.08V67.7C248.06 67.9 247.96 68 247.76 68H246.66ZM262.656 57.4C262.749 57.4 262.816 57.4333 262.856 57.5C262.896 57.5533 262.896 57.62 262.856 57.7L258.796 67.7C258.729 67.9 258.576 68 258.336 68H257.616C257.363 68 257.196 67.9067 257.116 67.72L253.076 57.7C253.049 57.62 253.056 57.5533 253.096 57.5C253.136 57.4333 253.203 57.4 253.296 57.4H254.536C254.616 57.4 254.683 57.42 254.736 57.46C254.789 57.4867 254.829 57.54 254.856 57.62L257.996 65.48C258.089 65.7333 258.196 65.7267 258.316 65.46L261.436 57.62C261.463 57.54 261.496 57.4867 261.536 57.46C261.589 57.42 261.656 57.4 261.736 57.4H262.656ZM266.654 67.66C266.654 67.7933 266.627 67.8867 266.574 67.94C266.534 67.98 266.44 68 266.294 68H265.274C265.154 68 265.074 67.98 265.034 67.94C264.994 67.9 264.974 67.8267 264.974 67.72V57.68C264.974 57.4933 265.054 57.4 265.214 57.4H266.434C266.58 57.4 266.654 57.4867 266.654 57.66V67.66ZM266.734 55.12C266.734 55.3733 266.614 55.5 266.374 55.5H265.214C265.094 55.5 265.014 55.4733 264.974 55.42C264.934 55.3533 264.914 55.2667 264.914 55.16V53.48C264.914 53.2667 265.007 53.16 265.194 53.16H266.454C266.64 53.16 266.734 53.26 266.734 53.46V55.12ZM270.879 63.36C270.879 64.0133 271.032 64.6133 271.339 65.16C271.659 65.6933 272.079 66.12 272.599 66.44C273.132 66.76 273.725 66.92 274.379 66.92C275.045 66.92 275.639 66.7867 276.159 66.52C276.679 66.24 277.125 65.82 277.499 65.26C277.552 65.2067 277.592 65.18 277.619 65.18C277.659 65.1667 277.712 65.1733 277.779 65.2L278.619 65.62C278.739 65.6867 278.752 65.78 278.659 65.9C278.299 66.4333 277.899 66.8733 277.459 67.22C277.032 67.5533 276.552 67.8 276.019 67.96C275.485 68.12 274.885 68.2 274.219 68.2C273.232 68.2 272.359 67.9733 271.599 67.52C270.839 67.0667 270.239 66.4333 269.799 65.62C269.359 64.8067 269.139 63.8667 269.139 62.8C269.139 61.64 269.359 60.6467 269.799 59.82C270.252 58.98 270.859 58.3333 271.619 57.88C272.392 57.4267 273.252 57.2 274.199 57.2C275.172 57.2 276.019 57.4133 276.739 57.84C277.459 58.2667 278.019 58.8867 278.419 59.7C278.819 60.5133 279.019 61.4933 279.019 62.64C279.019 62.7333 279.005 62.8267 278.979 62.92C278.965 63.0133 278.879 63.06 278.719 63.06H271.059C271.005 63.06 270.959 63.0933 270.919 63.16C270.892 63.2133 270.879 63.28 270.879 63.36ZM276.999 61.96C277.145 61.96 277.239 61.9467 277.279 61.92C277.319 61.88 277.339 61.8 277.339 61.68C277.339 61.1067 277.212 60.5733 276.959 60.08C276.719 59.5733 276.365 59.1667 275.899 58.86C275.445 58.5533 274.892 58.4 274.239 58.4C273.519 58.4 272.912 58.5733 272.419 58.92C271.925 59.2533 271.552 59.6933 271.299 60.24C271.045 60.7867 270.919 61.36 270.919 61.96H276.999ZM294.686 57.4C294.766 57.4 294.826 57.4333 294.866 57.5C294.906 57.5533 294.913 57.62 294.886 57.7L291.826 67.74C291.799 67.8333 291.753 67.9 291.686 67.94C291.633 67.98 291.553 68 291.446 68H290.486C290.259 68 290.119 67.9133 290.066 67.74L287.686 60.26C287.633 60.14 287.586 60.08 287.546 60.08C287.506 60.08 287.473 60.14 287.446 60.26L285.186 67.74C285.159 67.8333 285.113 67.9 285.046 67.94C284.993 67.98 284.913 68 284.806 68H283.786C283.573 68 283.433 67.9133 283.366 67.74L280.206 57.7C280.193 57.62 280.206 57.5533 280.246 57.5C280.286 57.4333 280.353 57.4 280.446 57.4H281.626C281.706 57.4 281.773 57.42 281.826 57.46C281.879 57.4867 281.919 57.54 281.946 57.62L284.326 65.4C284.366 65.5333 284.413 65.6 284.466 65.6C284.519 65.5867 284.573 65.5133 284.626 65.38L286.986 57.6C287.013 57.5333 287.046 57.4867 287.086 57.46C287.139 57.42 287.199 57.4 287.266 57.4H288.206C288.286 57.4 288.353 57.42 288.406 57.46C288.459 57.4867 288.493 57.54 288.506 57.62L290.966 65.4C291.006 65.5333 291.053 65.6 291.106 65.6C291.159 65.5867 291.206 65.5133 291.246 65.38L293.546 57.62C293.586 57.54 293.633 57.4867 293.686 57.46C293.739 57.42 293.806 57.4 293.886 57.4H294.686ZM304.121 58.66C304.015 58.66 303.961 58.7133 303.961 58.82V65.16C303.961 65.7867 304.068 66.2067 304.281 66.42C304.495 66.6333 304.815 66.74 305.241 66.74H306.621C306.688 66.74 306.741 66.76 306.781 66.8C306.821 66.8267 306.841 66.88 306.841 66.96L306.821 67.64C306.821 67.7733 306.741 67.86 306.581 67.9C306.448 67.9267 306.255 67.9467 306.001 67.96C305.761 67.9733 305.521 67.9867 305.281 68C305.055 68 304.861 68 304.701 68C303.861 68 303.248 67.8067 302.861 67.42C302.475 67.02 302.281 66.3933 302.281 65.54V58.86C302.281 58.7267 302.215 58.66 302.081 58.66H300.481C300.335 58.66 300.261 58.5867 300.261 58.44V57.6C300.261 57.4667 300.328 57.4 300.461 57.4H302.161C302.255 57.4 302.301 57.3467 302.301 57.24L302.521 54.06C302.535 53.8867 302.608 53.8 302.741 53.8H303.741C303.901 53.8 303.981 53.8933 303.981 54.08V57.24C303.981 57.3467 304.035 57.4 304.141 57.4H306.661C306.808 57.4 306.881 57.46 306.881 57.58V58.44C306.881 58.5867 306.808 58.66 306.661 58.66H304.121ZM313.242 68.2C312.242 68.2 311.355 67.9733 310.582 67.52C309.822 67.0533 309.228 66.4133 308.802 65.6C308.388 64.7733 308.182 63.8267 308.182 62.76C308.182 61.6533 308.395 60.6867 308.822 59.86C309.262 59.02 309.862 58.3667 310.622 57.9C311.382 57.4333 312.262 57.2 313.262 57.2C314.275 57.2 315.155 57.44 315.902 57.92C316.662 58.3867 317.248 59.04 317.662 59.88C318.088 60.7067 318.302 61.66 318.302 62.74C318.302 63.8067 318.088 64.7533 317.662 65.58C317.235 66.3933 316.642 67.0333 315.882 67.5C315.135 67.9667 314.255 68.2 313.242 68.2ZM313.282 66.94C313.975 66.94 314.568 66.7733 315.062 66.44C315.555 66.0933 315.928 65.6067 316.182 64.98C316.448 64.34 316.582 63.58 316.582 62.7C316.582 61.82 316.448 61.0667 316.182 60.44C315.915 59.8 315.535 59.3067 315.042 58.96C314.548 58.6133 313.955 58.44 313.262 58.44C312.582 58.44 311.988 58.6133 311.482 58.96C310.975 59.3067 310.582 59.8 310.302 60.44C310.035 61.0667 309.902 61.82 309.902 62.7C309.902 63.5667 310.035 64.32 310.302 64.96C310.582 65.6 310.975 66.0933 311.482 66.44C311.988 66.7733 312.588 66.94 313.282 66.94ZM332.592 68C332.498 68 332.425 67.98 332.372 67.94C332.332 67.8867 332.312 67.8133 332.312 67.72V66.88C332.312 66.7733 332.285 66.7133 332.232 66.7C332.192 66.6867 332.132 66.72 332.052 66.8C331.905 66.9333 331.692 67.1133 331.412 67.34C331.145 67.5667 330.805 67.7667 330.392 67.94C329.978 68.1133 329.485 68.2 328.912 68.2C328.072 68.2 327.318 68 326.652 67.6C325.985 67.2 325.452 66.6067 325.052 65.82C324.665 65.02 324.472 64.0333 324.472 62.86C324.472 61.7267 324.665 60.74 325.052 59.9C325.452 59.0467 326.005 58.3867 326.712 57.92C327.432 57.44 328.245 57.2 329.152 57.2C329.805 57.2 330.352 57.3067 330.792 57.52C331.232 57.7333 331.618 57.98 331.952 58.26C332.072 58.3533 332.152 58.3933 332.192 58.38C332.245 58.3533 332.272 58.2667 332.272 58.12V53.42C332.272 53.2467 332.345 53.16 332.492 53.16H333.712C333.858 53.16 333.932 53.2467 333.932 53.42V67.68C333.932 67.8 333.912 67.8867 333.872 67.94C333.832 67.98 333.745 68 333.612 68H332.592ZM332.252 59.74C331.838 59.3267 331.418 59.0067 330.992 58.78C330.565 58.5533 330.085 58.44 329.552 58.44C328.912 58.44 328.332 58.6067 327.812 58.94C327.305 59.26 326.905 59.7467 326.612 60.4C326.332 61.0533 326.192 61.8533 326.192 62.8C326.192 63.7733 326.338 64.5733 326.632 65.2C326.925 65.8133 327.318 66.2667 327.812 66.56C328.305 66.84 328.845 66.98 329.432 66.98C329.978 66.98 330.458 66.8533 330.872 66.6C331.298 66.3467 331.632 66.0333 331.872 65.66C332.125 65.2867 332.252 64.92 332.252 64.56V59.74ZM338.704 67.66C338.704 67.7933 338.678 67.8867 338.624 67.94C338.584 67.98 338.491 68 338.344 68H337.324C337.204 68 337.124 67.98 337.084 67.94C337.044 67.9 337.024 67.8267 337.024 67.72V57.68C337.024 57.4933 337.104 57.4 337.264 57.4H338.484C338.631 57.4 338.704 57.4867 338.704 57.66V67.66ZM338.784 55.12C338.784 55.3733 338.664 55.5 338.424 55.5H337.264C337.144 55.5 337.064 55.4733 337.024 55.42C336.984 55.3533 336.964 55.2667 336.964 55.16V53.48C336.964 53.2667 337.058 53.16 337.244 53.16H338.504C338.691 53.16 338.784 53.26 338.784 53.46V55.12ZM348.17 59.74C347.903 59.34 347.53 59.0133 347.05 58.76C346.57 58.5067 345.996 58.38 345.33 58.38C344.61 58.38 344.01 58.5333 343.53 58.84C343.063 59.1467 342.83 59.56 342.83 60.08C342.83 60.36 342.936 60.6267 343.15 60.88C343.363 61.12 343.796 61.3467 344.45 61.56L346.99 62.32C347.91 62.5733 348.57 62.94 348.97 63.42C349.383 63.9 349.59 64.4533 349.59 65.08C349.59 65.7067 349.403 66.2533 349.03 66.72C348.656 67.1867 348.143 67.5533 347.49 67.82C346.836 68.0733 346.096 68.2 345.27 68.2C344.216 68.2 343.296 67.9933 342.51 67.58C341.723 67.1533 341.163 66.6267 340.83 66C340.79 65.9333 340.77 65.8733 340.77 65.82C340.77 65.7667 340.803 65.72 340.87 65.68L341.65 65.24C341.716 65.2 341.776 65.1867 341.83 65.2C341.883 65.2 341.923 65.22 341.95 65.26C342.176 65.6067 342.436 65.9067 342.73 66.16C343.036 66.4133 343.396 66.6133 343.81 66.76C344.236 66.9067 344.73 66.98 345.29 66.98C345.796 66.9667 346.256 66.8933 346.67 66.76C347.083 66.6267 347.41 66.4333 347.65 66.18C347.89 65.9133 348.01 65.6067 348.01 65.26C348.01 64.9 347.863 64.5933 347.57 64.34C347.276 64.0733 346.77 63.84 346.05 63.64L343.99 63.06C342.99 62.7933 342.283 62.4333 341.87 61.98C341.47 61.5267 341.263 60.9933 341.25 60.38C341.25 59.74 341.423 59.1867 341.77 58.72C342.116 58.24 342.596 57.8667 343.21 57.6C343.836 57.3333 344.55 57.2 345.35 57.2C346.243 57.2 347.036 57.3733 347.73 57.72C348.436 58.0533 348.97 58.5 349.33 59.06C349.37 59.1133 349.39 59.1667 349.39 59.22C349.39 59.26 349.363 59.3 349.31 59.34L348.47 59.8C348.416 59.8267 348.363 59.84 348.31 59.84C348.27 59.8267 348.223 59.7933 348.17 59.74ZM356.444 57.2C357.137 57.2 357.744 57.3133 358.264 57.54C358.797 57.7533 359.251 58.0533 359.624 58.44C360.011 58.8133 360.331 59.2267 360.584 59.68C360.664 59.84 360.631 59.94 360.484 59.98L359.384 60.24C359.291 60.28 359.204 60.24 359.124 60.12C358.857 59.7333 358.591 59.42 358.324 59.18C358.071 58.94 357.797 58.76 357.504 58.64C357.211 58.5067 356.891 58.44 356.544 58.44C355.864 58.44 355.264 58.6133 354.744 58.96C354.237 59.2933 353.844 59.78 353.564 60.42C353.284 61.06 353.144 61.82 353.144 62.7C353.144 63.5933 353.284 64.36 353.564 65C353.857 65.64 354.257 66.1267 354.764 66.46C355.284 66.7933 355.891 66.96 356.584 66.96C357.224 66.96 357.777 66.8 358.244 66.48C358.711 66.16 359.137 65.6933 359.524 65.08C359.564 65.0133 359.597 64.98 359.624 64.98C359.664 64.9667 359.717 64.9733 359.784 65L360.644 65.32C360.737 65.36 360.764 65.4467 360.724 65.58C360.524 65.9267 360.291 66.26 360.024 66.58C359.757 66.9 359.444 67.18 359.084 67.42C358.737 67.66 358.344 67.8533 357.904 68C357.464 68.1333 356.977 68.2 356.444 68.2C355.457 68.2 354.584 67.9733 353.824 67.52C353.077 67.0533 352.491 66.4133 352.064 65.6C351.637 64.7733 351.424 63.82 351.424 62.74C351.424 61.6467 351.637 60.6867 352.064 59.86C352.504 59.0333 353.097 58.3867 353.844 57.92C354.604 57.44 355.471 57.2 356.444 57.2ZM366.484 66.88C367.057 66.88 367.604 66.7267 368.124 66.42C368.657 66.1 369.184 65.6733 369.704 65.14V57.7C369.704 57.5 369.81 57.4 370.024 57.4H371.124C371.31 57.4 371.404 57.4933 371.404 57.68L371.364 67.74C371.364 67.9133 371.29 68 371.144 68H369.984C369.837 68 369.764 67.9267 369.764 67.78V66.6C369.764 66.5333 369.75 66.4933 369.724 66.48C369.697 66.4667 369.65 66.4867 369.584 66.54C368.85 67.1667 368.197 67.6 367.624 67.84C367.064 68.08 366.504 68.2 365.944 68.2C365.33 68.2 364.784 68.0733 364.304 67.82C363.824 67.5667 363.444 67.2133 363.164 66.76C362.884 66.2933 362.744 65.7533 362.744 65.14V57.72C362.744 57.5067 362.844 57.4 363.044 57.4H364.164C364.337 57.4 364.424 57.4933 364.424 57.68V64.7C364.424 65.3533 364.604 65.88 364.964 66.28C365.337 66.68 365.844 66.88 366.484 66.88ZM380.826 59.74C380.559 59.34 380.186 59.0133 379.706 58.76C379.226 58.5067 378.652 58.38 377.986 58.38C377.266 58.38 376.666 58.5333 376.186 58.84C375.719 59.1467 375.486 59.56 375.486 60.08C375.486 60.36 375.592 60.6267 375.806 60.88C376.019 61.12 376.452 61.3467 377.106 61.56L379.646 62.32C380.566 62.5733 381.226 62.94 381.626 63.42C382.039 63.9 382.246 64.4533 382.246 65.08C382.246 65.7067 382.059 66.2533 381.686 66.72C381.312 67.1867 380.799 67.5533 380.146 67.82C379.492 68.0733 378.752 68.2 377.926 68.2C376.872 68.2 375.952 67.9933 375.166 67.58C374.379 67.1533 373.819 66.6267 373.486 66C373.446 65.9333 373.426 65.8733 373.426 65.82C373.426 65.7667 373.459 65.72 373.526 65.68L374.306 65.24C374.372 65.2 374.432 65.1867 374.486 65.2C374.539 65.2 374.579 65.22 374.606 65.26C374.832 65.6067 375.092 65.9067 375.386 66.16C375.692 66.4133 376.052 66.6133 376.466 66.76C376.892 66.9067 377.386 66.98 377.946 66.98C378.452 66.9667 378.912 66.8933 379.326 66.76C379.739 66.6267 380.066 66.4333 380.306 66.18C380.546 65.9133 380.666 65.6067 380.666 65.26C380.666 64.9 380.519 64.5933 380.226 64.34C379.932 64.0733 379.426 63.84 378.706 63.64L376.646 63.06C375.646 62.7933 374.939 62.4333 374.526 61.98C374.126 61.5267 373.919 60.9933 373.906 60.38C373.906 59.74 374.079 59.1867 374.426 58.72C374.772 58.24 375.252 57.8667 375.866 57.6C376.492 57.3333 377.206 57.2 378.006 57.2C378.899 57.2 379.692 57.3733 380.386 57.72C381.092 58.0533 381.626 58.5 381.986 59.06C382.026 59.1133 382.046 59.1667 382.046 59.22C382.046 59.26 382.019 59.3 381.966 59.34L381.126 59.8C381.072 59.8267 381.019 59.84 380.966 59.84C380.926 59.8267 380.879 59.7933 380.826 59.74ZM391.06 59.74C390.793 59.34 390.42 59.0133 389.94 58.76C389.46 58.5067 388.887 58.38 388.22 58.38C387.5 58.38 386.9 58.5333 386.42 58.84C385.953 59.1467 385.72 59.56 385.72 60.08C385.72 60.36 385.827 60.6267 386.04 60.88C386.253 61.12 386.687 61.3467 387.34 61.56L389.88 62.32C390.8 62.5733 391.46 62.94 391.86 63.42C392.273 63.9 392.48 64.4533 392.48 65.08C392.48 65.7067 392.293 66.2533 391.92 66.72C391.547 67.1867 391.033 67.5533 390.38 67.82C389.727 68.0733 388.987 68.2 388.16 68.2C387.107 68.2 386.187 67.9933 385.4 67.58C384.613 67.1533 384.053 66.6267 383.72 66C383.68 65.9333 383.66 65.8733 383.66 65.82C383.66 65.7667 383.693 65.72 383.76 65.68L384.54 65.24C384.607 65.2 384.667 65.1867 384.72 65.2C384.773 65.2 384.813 65.22 384.84 65.26C385.067 65.6067 385.327 65.9067 385.62 66.16C385.927 66.4133 386.287 66.6133 386.7 66.76C387.127 66.9067 387.62 66.98 388.18 66.98C388.687 66.9667 389.147 66.8933 389.56 66.76C389.973 66.6267 390.3 66.4333 390.54 66.18C390.78 65.9133 390.9 65.6067 390.9 65.26C390.9 64.9 390.753 64.5933 390.46 64.34C390.167 64.0733 389.66 63.84 388.94 63.64L386.88 63.06C385.88 62.7933 385.173 62.4333 384.76 61.98C384.36 61.5267 384.153 60.9933 384.14 60.38C384.14 59.74 384.313 59.1867 384.66 58.72C385.007 58.24 385.487 57.8667 386.1 57.6C386.727 57.3333 387.44 57.2 388.24 57.2C389.133 57.2 389.927 57.3733 390.62 57.72C391.327 58.0533 391.86 58.5 392.22 59.06C392.26 59.1133 392.28 59.1667 392.28 59.22C392.28 59.26 392.253 59.3 392.2 59.34L391.36 59.8C391.307 59.8267 391.253 59.84 391.2 59.84C391.16 59.8267 391.113 59.7933 391.06 59.74ZM95.82 92C95.6333 92 95.54 91.9133 95.54 91.74V81.66C95.54 81.4867 95.6133 81.4 95.76 81.4H96.96C97.0933 81.4 97.16 81.4733 97.16 81.62V82.78C97.16 82.8467 97.1733 82.8867 97.2 82.9C97.24 82.9133 97.2933 82.8933 97.36 82.84C97.7867 82.4933 98.18 82.2 98.54 81.96C98.9133 81.7067 99.2867 81.52 99.66 81.4C100.047 81.2667 100.46 81.2 100.9 81.2C101.687 81.2 102.313 81.38 102.78 81.74C103.26 82.1 103.58 82.5067 103.74 82.96C103.767 83.0133 103.807 83.0333 103.86 83.02C103.913 83.0067 103.967 82.9733 104.02 82.92C104.447 82.56 104.847 82.2533 105.22 82C105.607 81.7467 105.993 81.5533 106.38 81.42C106.78 81.2733 107.2 81.2 107.64 81.2C108.613 81.2 109.367 81.48 109.9 82.04C110.433 82.5867 110.7 83.3267 110.7 84.26V91.68C110.7 91.8933 110.6 92 110.4 92H109.28C109.187 92 109.12 91.98 109.08 91.94C109.04 91.8867 109.02 91.82 109.02 91.74V84.6C109.02 83.9467 108.86 83.44 108.54 83.08C108.233 82.7067 107.747 82.52 107.08 82.52C106.693 82.52 106.32 82.5933 105.96 82.74C105.613 82.8867 105.293 83.0667 105 83.28C104.72 83.4933 104.467 83.6933 104.24 83.88C104.133 83.9733 104.06 84.0667 104.02 84.16C103.98 84.24 103.96 84.3467 103.96 84.48V91.68C103.96 91.8933 103.86 92 103.66 92H102.54C102.46 92 102.393 91.98 102.34 91.94C102.3 91.8867 102.28 91.82 102.28 91.74V84.6C102.28 83.9467 102.127 83.44 101.82 83.08C101.513 82.7067 101.027 82.52 100.36 82.52C99.8 82.52 99.2867 82.6533 98.82 82.92C98.3533 83.1867 97.82 83.5933 97.22 84.14V91.7C97.22 91.9 97.12 92 96.92 92H95.82ZM118.105 92.2C117.105 92.2 116.218 91.9733 115.445 91.52C114.685 91.0533 114.092 90.4133 113.665 89.6C113.252 88.7733 113.045 87.8267 113.045 86.76C113.045 85.6533 113.258 84.6867 113.685 83.86C114.125 83.02 114.725 82.3667 115.485 81.9C116.245 81.4333 117.125 81.2 118.125 81.2C119.138 81.2 120.018 81.44 120.765 81.92C121.525 82.3867 122.112 83.04 122.525 83.88C122.952 84.7067 123.165 85.66 123.165 86.74C123.165 87.8067 122.952 88.7533 122.525 89.58C122.098 90.3933 121.505 91.0333 120.745 91.5C119.998 91.9667 119.118 92.2 118.105 92.2ZM118.145 90.94C118.838 90.94 119.432 90.7733 119.925 90.44C120.418 90.0933 120.792 89.6067 121.045 88.98C121.312 88.34 121.445 87.58 121.445 86.7C121.445 85.82 121.312 85.0667 121.045 84.44C120.778 83.8 120.398 83.3067 119.905 82.96C119.412 82.6133 118.818 82.44 118.125 82.44C117.445 82.44 116.852 82.6133 116.345 82.96C115.838 83.3067 115.445 83.8 115.165 84.44C114.898 85.0667 114.765 85.82 114.765 86.7C114.765 87.5667 114.898 88.32 115.165 88.96C115.445 89.6 115.838 90.0933 116.345 90.44C116.852 90.7733 117.452 90.94 118.145 90.94ZM125.918 92C125.824 92 125.751 91.98 125.698 91.94C125.658 91.8867 125.638 91.82 125.638 91.74V81.66C125.638 81.4867 125.711 81.4 125.858 81.4H127.018C127.164 81.4 127.238 81.4733 127.238 81.62V82.92C127.238 83 127.258 83.0467 127.298 83.06C127.338 83.0733 127.391 83.0467 127.458 82.98C127.804 82.5667 128.144 82.2333 128.478 81.98C128.824 81.7133 129.171 81.52 129.518 81.4C129.864 81.2667 130.211 81.2 130.558 81.2C131.024 81.2 131.258 81.2867 131.258 81.46V82.66C131.258 82.7933 131.198 82.8467 131.078 82.82C130.958 82.8067 130.818 82.7933 130.658 82.78C130.511 82.7667 130.351 82.76 130.178 82.76C129.884 82.76 129.571 82.8267 129.238 82.96C128.904 83.08 128.591 83.2533 128.298 83.48C128.018 83.7067 127.784 83.96 127.598 84.24C127.411 84.52 127.318 84.8 127.318 85.08V91.7C127.318 91.9 127.218 92 127.018 92H125.918ZM134.16 87.36C134.16 88.0133 134.313 88.6133 134.62 89.16C134.94 89.6933 135.36 90.12 135.88 90.44C136.413 90.76 137.007 90.92 137.66 90.92C138.327 90.92 138.92 90.7867 139.44 90.52C139.96 90.24 140.407 89.82 140.78 89.26C140.833 89.2067 140.873 89.18 140.9 89.18C140.94 89.1667 140.993 89.1733 141.06 89.2L141.9 89.62C142.02 89.6867 142.033 89.78 141.94 89.9C141.58 90.4333 141.18 90.8733 140.74 91.22C140.313 91.5533 139.833 91.8 139.3 91.96C138.767 92.12 138.167 92.2 137.5 92.2C136.513 92.2 135.64 91.9733 134.88 91.52C134.12 91.0667 133.52 90.4333 133.08 89.62C132.64 88.8067 132.42 87.8667 132.42 86.8C132.42 85.64 132.64 84.6467 133.08 83.82C133.533 82.98 134.14 82.3333 134.9 81.88C135.673 81.4267 136.533 81.2 137.48 81.2C138.453 81.2 139.3 81.4133 140.02 81.84C140.74 82.2667 141.3 82.8867 141.7 83.7C142.1 84.5133 142.3 85.4933 142.3 86.64C142.3 86.7333 142.287 86.8267 142.26 86.92C142.247 87.0133 142.16 87.06 142 87.06H134.34C134.287 87.06 134.24 87.0933 134.2 87.16C134.173 87.2133 134.16 87.28 134.16 87.36ZM140.28 85.96C140.427 85.96 140.52 85.9467 140.56 85.92C140.6 85.88 140.62 85.8 140.62 85.68C140.62 85.1067 140.493 84.5733 140.24 84.08C140 83.5733 139.647 83.1667 139.18 82.86C138.727 82.5533 138.173 82.4 137.52 82.4C136.8 82.4 136.193 82.5733 135.7 82.92C135.207 83.2533 134.833 83.6933 134.58 84.24C134.327 84.7867 134.2 85.36 134.2 85.96H140.28ZM146.221 91.68C146.221 91.8933 146.101 92 145.861 92H144.461C144.261 92 144.161 91.9067 144.161 91.72V90C144.161 89.8267 144.234 89.74 144.381 89.74H146.021C146.154 89.74 146.221 89.82 146.221 89.98V91.68Z" fill="black"/>
</svg>
